<svg width="128.000000" height="128.000000" viewBox="0 0 128 128" fill="none" xmlns="http://www.w3.org/2000/svg" xmlns:xlink="http://www.w3.org/1999/xlink">
	<desc>
			Created with Pixso.
	</desc>
	<defs/>
	<path d="M62.7098 49.0936C56.2141 21.8724 32.3317 1.40161 3.45443 0.0690918C2.46017 0.0231934 1.45999 0 0.454399 0C0.454399 1.00562 0.477592 2.00574 0.523468 3C1.84878 31.7211 22.105 55.5028 49.1038 62.1486C52.2466 62.9222 55.4807 63.4636 58.7869 63.7535C55.4784 64.0206 52.2409 64.5392 49.0936 65.2902C21.8724 71.7859 1.40164 95.6683 0.0690765 124.546C0.0231934 125.54 0 126.54 0 127.546L0.0317535 127.546C1.02665 127.545 2.01624 127.522 3.00004 127.477C31.721 126.151 55.5028 105.895 62.1486 78.8962C62.9222 75.7534 63.4636 72.5193 63.7536 69.2131C64.0206 72.5216 64.5392 75.7592 65.2902 78.9064C71.7859 106.128 95.6683 126.598 124.546 127.931C125.54 127.977 126.54 128 127.546 128L127.546 127.968C127.545 126.973 127.522 125.984 127.477 125C126.151 96.2789 105.895 72.4972 78.8962 65.8514C75.7534 65.0778 72.5193 64.5364 69.2131 64.2465C72.5216 63.9794 75.7591 63.4608 78.9063 62.7098C106.128 56.2141 126.598 32.3318 127.931 3.45447C127.977 2.46021 128 1.46008 128 0.454468L127.999 0.454468C126.994 0.454468 125.994 0.477661 125 0.52356C96.279 1.84875 72.4972 22.105 65.8514 49.1038C65.0778 52.2466 64.5364 55.4807 64.2464 58.787C63.9794 55.4784 63.4608 52.2408 62.7098 49.0936ZM124.932 3.52246Q114.723 3.97949 105.714 7.50464Q95.4193 11.533 86.6922 19.5679Q77.8514 27.7076 72.9714 37.7686Q68.2471 47.5085 67.235 59.0491L61.2561 59.0283Q60.3173 47.3959 55.608 37.5708Q50.7585 27.4534 41.9108 19.2522Q33.1649 11.1455 22.8293 7.08252Q13.7846 3.52686 3.52247 3.06799Q3.97947 13.2773 7.5046 22.2861Q11.5329 32.5808 19.5679 41.3077Q27.7077 50.1486 37.7686 55.0286Q47.5086 59.7529 59.049 60.765L59.0283 66.7439Q47.3961 67.6826 37.5711 72.3918Q27.4534 77.2413 19.2522 86.0892Q11.1456 94.835 7.0826 105.17Q3.52689 114.215 3.068 124.478Q13.2772 124.021 22.2859 120.495Q32.5807 116.467 41.3078 108.432Q50.1486 100.292 55.0286 90.2314Q59.7529 80.4915 60.7651 68.9509L66.7439 68.9717Q67.6827 80.6041 72.392 90.4293Q77.2415 100.547 86.0892 108.748Q94.8352 116.854 105.171 120.917Q114.215 124.473 124.478 124.932Q124.021 114.723 120.496 105.714Q116.467 95.4194 108.432 86.6923Q100.292 77.8514 90.2317 72.9716Q80.4916 68.2471 68.951 67.235L68.9717 61.2561Q80.6041 60.3174 90.4291 55.608Q100.547 50.7585 108.748 41.9108Q116.854 33.1649 120.917 22.8295Q124.473 13.7847 124.932 3.52246Z" fill="#F269AF" fill-opacity="1.000000" fill-rule="evenodd"/>
</svg>
