<svg width="72" height="1579" viewBox="0 0 72 1579" fill="none" xmlns="http://www.w3.org/2000/svg">
<mask id="path-1-outside-1_901_903" maskUnits="userSpaceOnUse" x="3" y="1474.12" width="66" height="217" fill="black">
<rect fill="white" x="3" y="1474.12" width="66" height="217"/>
<path d="M4.504 1689.35L4.504 1667.76H13.576L13.576 1679.86H29.956V1670.37H39.448V1679.86H57.508V1667.26H67V1689.35H4.504ZM67 1647.1V1658.61L4.504 1666.51V1656.85L47.428 1652.56L4.504 1648.2L4.504 1639.21L67 1647.1ZM4.504 1637.51L4.504 1615.92H13.576L13.576 1628.02H29.956V1618.52H39.448V1628.02H57.508V1615.42H67V1637.51H4.504ZM12.988 1603.49H30.208V1600.97C30.208 1598.36 28.528 1597.52 25.756 1597.52H17.02C14.332 1597.52 12.988 1598.11 12.988 1600.97V1603.49ZM39.112 1603.49H67V1612.98H4.504L4.504 1597.61C4.504 1591.31 7.192 1588.12 14.164 1588.12H25.252C30.46 1588.12 32.476 1590.55 33.232 1592.23C34.156 1590.13 35.836 1588.12 40.036 1588.12H61.96C64.48 1588.12 65.656 1587.61 66.58 1587.19H67V1596.6C66.328 1597.02 65.236 1597.52 61.876 1597.52H43.06C40.288 1597.52 39.112 1598.03 39.112 1601.05V1603.49ZM67 1579.04H40.96L4.504 1587.6L4.504 1578.36L27.772 1574L4.504 1569.8L4.504 1561.23L41.044 1569.54H67V1579.04ZM67 1551.46H4.504L4.504 1536.92C4.504 1528.78 9.124 1526.26 16.516 1526.26H54.568C62.212 1526.26 67 1529.11 67 1536.92V1551.46ZM12.988 1541.96H57.928V1539.7C57.928 1536.84 56.416 1536 53.056 1536H17.86C14.248 1536 12.988 1536.92 12.988 1539.28V1541.96ZM45.916 1509.71L22.816 1512.23L45.916 1514.67V1509.71ZM67 1507.44L55.24 1508.7V1515.59L67 1516.85L67 1525.34L4.504 1517.69L4.504 1506.44L67 1498.29V1507.44ZM67 1493.81H40.96L4.504 1502.37L4.504 1493.13L27.772 1488.77L4.504 1484.57L4.504 1476L41.044 1484.31H67V1493.81Z"/>
</mask>
<path d="M4.504 1689.35H3.23276V1690.62H4.504V1689.35ZM4.504 1667.76V1666.49H3.23276L3.23276 1667.76H4.504ZM13.576 1667.76H14.8472V1666.49H13.576V1667.76ZM13.576 1679.86H12.3048V1681.13H13.576V1679.86ZM29.956 1679.86V1681.13H31.2272V1679.86H29.956ZM29.956 1670.37V1669.1H28.6848V1670.37H29.956ZM39.448 1670.37H40.7192V1669.1H39.448V1670.37ZM39.448 1679.86H38.1768V1681.13H39.448V1679.86ZM57.508 1679.86V1681.13H58.7792V1679.86H57.508ZM57.508 1667.26V1665.99H56.2368V1667.26H57.508ZM67 1667.26H68.2712V1665.99H67V1667.26ZM67 1689.35V1690.62H68.2712V1689.35H67ZM5.77523 1689.35L5.77523 1667.76H3.23276L3.23276 1689.35H5.77523ZM4.504 1669.03H13.576V1666.49H4.504V1669.03ZM12.3048 1667.76L12.3048 1679.86H14.8472L14.8472 1667.76H12.3048ZM13.576 1681.13H29.956V1678.59H13.576V1681.13ZM31.2272 1679.86V1670.37H28.6848V1679.86H31.2272ZM29.956 1671.64H39.448V1669.1H29.956V1671.64ZM38.1768 1670.37V1679.86H40.7192V1670.37H38.1768ZM39.448 1681.13H57.508V1678.59H39.448V1681.13ZM58.7792 1679.86V1667.26H56.2368V1679.86H58.7792ZM57.508 1668.53H67V1665.99H57.508V1668.53ZM65.7288 1667.26V1689.35H68.2712V1667.26H65.7288ZM67 1688.08H4.504V1690.62H67V1688.08ZM67 1647.1H68.2712V1645.98L67.1593 1645.84L67 1647.1ZM67 1658.61L67.1593 1659.87L68.2712 1659.73V1658.61H67ZM4.504 1666.51H3.23276L3.23276 1667.95L4.66334 1667.77L4.504 1666.51ZM4.504 1656.85L4.37775 1655.58L3.23276 1655.7L3.23276 1656.85H4.504ZM47.428 1652.56L47.5542 1653.83L47.5567 1651.3L47.428 1652.56ZM4.504 1648.2H3.23276V1649.34L4.3753 1649.46L4.504 1648.2ZM4.504 1639.21L4.66334 1637.95L3.23276 1637.77L3.23276 1639.21H4.504ZM65.7288 1647.1V1658.61H68.2712V1647.1H65.7288ZM66.8407 1657.35L4.34465 1665.25L4.66334 1667.77L67.1593 1659.87L66.8407 1657.35ZM5.77523 1666.51V1656.85H3.23276V1666.51H5.77523ZM4.63025 1658.11L47.5542 1653.83L47.3018 1651.3L4.37775 1655.58L4.63025 1658.11ZM47.5567 1651.3L4.6327 1646.93L4.3753 1649.46L47.2993 1653.83L47.5567 1651.3ZM5.77523 1648.2L5.77523 1639.21H3.23276L3.23276 1648.2H5.77523ZM4.34465 1640.47L66.8407 1648.37L67.1593 1645.84L4.66334 1637.95L4.34465 1640.47ZM4.504 1637.51H3.23276L3.23276 1638.78H4.504V1637.51ZM4.504 1615.92V1614.65H3.23276V1615.92H4.504ZM13.576 1615.92H14.8472V1614.65H13.576V1615.92ZM13.576 1628.02H12.3048V1629.29H13.576V1628.02ZM29.956 1628.02V1629.29H31.2272V1628.02H29.956ZM29.956 1618.52V1617.25H28.6848V1618.52H29.956ZM39.448 1618.52H40.7192V1617.25H39.448V1618.52ZM39.448 1628.02H38.1768V1629.29H39.448V1628.02ZM57.508 1628.02V1629.29H58.7792V1628.02H57.508ZM57.508 1615.42V1614.14H56.2368V1615.42H57.508ZM67 1615.42H68.2712V1614.14H67V1615.42ZM67 1637.51V1638.78H68.2712V1637.51H67ZM5.77523 1637.51L5.77523 1615.92H3.23276L3.23276 1637.51H5.77523ZM4.504 1617.19H13.576V1614.65H4.504V1617.19ZM12.3048 1615.92V1628.02H14.8472L14.8472 1615.92H12.3048ZM13.576 1629.29H29.956V1626.74H13.576V1629.29ZM31.2272 1628.02V1618.52H28.6848V1628.02H31.2272ZM29.956 1619.79H39.448V1617.25H29.956V1619.79ZM38.1768 1618.52V1628.02H40.7192V1618.52H38.1768ZM39.448 1629.29H57.508V1626.74H39.448V1629.29ZM58.7792 1628.02V1615.42H56.2368V1628.02H58.7792ZM57.508 1616.69H67V1614.14H57.508V1616.69ZM65.7288 1615.42V1637.51H68.2712V1615.42H65.7288ZM67 1636.24H4.504V1638.78H67V1636.24ZM12.988 1603.49H11.7168V1604.76H12.988V1603.49ZM30.208 1603.49L30.208 1604.76H31.4792L31.4792 1603.49H30.208ZM39.112 1603.49H37.8408V1604.76H39.112V1603.49ZM67 1603.49H68.2712V1602.22H67V1603.49ZM67 1612.98V1614.25H68.2712V1612.98H67ZM4.504 1612.98H3.23276L3.23276 1614.25H4.504V1612.98ZM33.232 1592.23L32.0727 1592.75L33.2451 1595.36L34.3956 1592.74L33.232 1592.23ZM66.58 1587.19V1585.92H66.3046L66.054 1586.03L66.58 1587.19ZM67 1587.19H68.2712V1585.92H67V1587.19ZM67 1596.6L67.6738 1597.68L68.2712 1597.3V1596.6H67ZM12.988 1604.76H30.208L30.208 1602.22H12.988V1604.76ZM31.4792 1603.49V1600.97H28.9368V1603.49H31.4792ZM31.4792 1600.97C31.4792 1599.36 30.9402 1598.06 29.7495 1597.23C28.6573 1596.46 27.2198 1596.25 25.756 1596.25V1598.8C27.0642 1598.8 27.8527 1599 28.2935 1599.31C28.6358 1599.55 28.9368 1599.97 28.9368 1600.97H31.4792ZM25.756 1596.25H17.02V1598.8H25.756V1596.25ZM17.02 1596.25C15.6688 1596.25 14.2712 1596.38 13.2333 1597.16C12.0917 1598.01 11.7168 1599.37 11.7168 1600.97H14.2592C14.2592 1599.71 14.5563 1599.34 14.7587 1599.19C15.0648 1598.96 15.6832 1598.8 17.02 1598.8V1596.25ZM11.7168 1600.97V1603.49H14.2592V1600.97H11.7168ZM39.112 1604.76H67V1602.22H39.112V1604.76ZM65.7288 1603.49V1612.98H68.2712V1603.49H65.7288ZM67 1611.71H4.504L4.504 1614.25H67V1611.71ZM5.77523 1612.98L5.77523 1597.61H3.23276L3.23276 1612.98H5.77523ZM5.77523 1597.61C5.77523 1594.61 6.4203 1592.63 7.63038 1591.39C8.83428 1590.15 10.8441 1589.39 14.164 1589.39V1586.85C10.5119 1586.85 7.69172 1587.68 5.80862 1589.61C3.9317 1591.54 3.23276 1594.31 3.23276 1597.61H5.77523ZM14.164 1589.39H25.252V1586.85H14.164V1589.39ZM25.252 1589.39C27.652 1589.39 29.2059 1589.95 30.2146 1590.61C31.2256 1591.27 31.7749 1592.09 32.0727 1592.75L34.3913 1591.71C33.9331 1590.69 33.0964 1589.46 31.6084 1588.48C30.1181 1587.5 28.06 1586.85 25.252 1586.85V1589.39ZM34.3956 1592.74C34.805 1591.81 35.3373 1591 36.1502 1590.42C36.9528 1589.84 38.1477 1589.39 40.036 1589.39V1586.85C37.7242 1586.85 35.9791 1587.4 34.6608 1588.36C33.3527 1589.3 32.583 1590.55 32.0684 1591.72L34.3956 1592.74ZM40.036 1589.39H61.96V1586.85H40.036V1589.39ZM61.96 1589.39C64.7073 1589.39 66.0643 1588.82 67.106 1588.35L66.054 1586.03C65.2477 1586.4 64.2527 1586.85 61.96 1586.85V1589.39ZM66.58 1588.46H67V1585.92H66.58V1588.46ZM65.7288 1587.19V1596.6H68.2712V1587.19H65.7288ZM66.3262 1595.52C65.9288 1595.77 65.1008 1596.25 61.876 1596.25V1598.8C65.3712 1598.8 66.7272 1598.27 67.6738 1597.68L66.3262 1595.52ZM61.876 1596.25H43.06V1598.8H61.876V1596.25ZM43.06 1596.25C41.7064 1596.25 40.2872 1596.35 39.2604 1597.16C38.1391 1598.04 37.8408 1599.45 37.8408 1601.05H40.3832C40.3832 1599.63 40.6729 1599.28 40.8326 1599.15C41.0868 1598.95 41.6416 1598.8 43.06 1598.8V1596.25ZM37.8408 1601.05V1603.49H40.3832V1601.05H37.8408ZM67 1579.04V1580.31H68.2712V1579.04H67ZM40.96 1579.04V1577.76H40.8126L40.6692 1577.8L40.96 1579.04ZM4.504 1587.6H3.23276V1589.21L4.79484 1588.84L4.504 1587.6ZM4.504 1578.36L4.26945 1577.11L3.23276 1577.31V1578.36H4.504ZM27.772 1574L28.0065 1575.25L27.9978 1572.74L27.772 1574ZM4.504 1569.8H3.23276V1570.86L4.27818 1571.05L4.504 1569.8ZM4.504 1561.23L4.7861 1559.99L3.23276 1559.63V1561.23H4.504ZM41.044 1569.54L40.7619 1570.78L40.9012 1570.81H41.044V1569.54ZM67 1569.54H68.2712V1568.27H67V1569.54ZM67 1577.76H40.96V1580.31H67V1577.76ZM40.6692 1577.8L4.21315 1586.37L4.79484 1588.84L41.2508 1580.27L40.6692 1577.8ZM5.77523 1587.6L5.77523 1578.36H3.23276L3.23276 1587.6H5.77523ZM4.73854 1579.61L28.0065 1575.25L27.5375 1572.75L4.26945 1577.11L4.73854 1579.61ZM27.9978 1572.74L4.72981 1568.54L4.27818 1571.05L27.5462 1575.25L27.9978 1572.74ZM5.77523 1569.8L5.77523 1561.23H3.23276L3.23276 1569.8H5.77523ZM4.2219 1562.47L40.7619 1570.78L41.3261 1568.3L4.7861 1559.99L4.2219 1562.47ZM41.044 1570.81H67V1568.27H41.044V1570.81ZM65.7288 1569.54V1579.04H68.2712V1569.54H65.7288ZM67 1551.46V1552.73H68.2712V1551.46H67ZM4.504 1551.46H3.23276L3.23276 1552.73H4.504V1551.46ZM12.988 1541.96H11.7168V1543.24H12.988V1541.96ZM57.928 1541.96V1543.24H59.1992V1541.96H57.928ZM67 1550.19H4.504V1552.73H67V1550.19ZM5.77523 1551.46L5.77523 1536.92H3.23276L3.23276 1551.46H5.77523ZM5.77523 1536.92C5.77523 1533.09 6.85153 1530.86 8.52783 1529.53C10.2688 1528.15 12.9174 1527.53 16.516 1527.53V1524.99C12.7226 1524.99 9.36521 1525.62 6.94817 1527.54C4.46647 1529.51 3.23276 1532.61 3.23276 1536.92H5.77523ZM16.516 1527.53H54.568V1524.99H16.516V1527.53ZM54.568 1527.53C58.2705 1527.53 61.039 1528.23 62.8653 1529.66C64.6297 1531.05 65.7288 1533.29 65.7288 1536.92H68.2712C68.2712 1532.75 66.9763 1529.66 64.4357 1527.66C61.957 1525.71 58.5095 1524.99 54.568 1524.99V1527.53ZM65.7288 1536.92V1551.46H68.2712V1536.92H65.7288ZM12.988 1543.24H57.928V1540.69H12.988V1543.24ZM59.1992 1541.96V1539.7H56.6568V1541.96H59.1992ZM59.1992 1539.7C59.1992 1538.05 58.7523 1536.64 57.4883 1535.74C56.3428 1534.93 54.7693 1534.73 53.056 1534.73V1537.27C54.7027 1537.27 55.5652 1537.49 56.0157 1537.81C56.3477 1538.05 56.6568 1538.49 56.6568 1539.7H59.1992ZM53.056 1534.73H17.86V1537.27H53.056V1534.73ZM17.86 1534.73C16.0168 1534.73 14.4572 1534.95 13.3511 1535.71C12.11 1536.56 11.7168 1537.87 11.7168 1539.28H14.2592C14.2592 1538.34 14.496 1538.01 14.7879 1537.81C15.2148 1537.51 16.0912 1537.27 17.86 1537.27V1534.73ZM11.7168 1539.28V1541.96H14.2592V1539.28H11.7168ZM45.916 1509.71H47.1872V1508.29L45.7781 1508.45L45.916 1509.71ZM22.816 1512.23L22.6781 1510.97L22.6827 1513.5L22.816 1512.23ZM45.916 1514.67L45.7827 1515.93L47.1872 1516.08V1514.67H45.916ZM67 1507.44L67.1354 1508.71L68.2712 1508.59V1507.44H67ZM55.24 1508.7L55.1046 1507.44L53.9688 1507.56V1508.7H55.24ZM55.24 1515.59H53.9688V1516.73L55.1046 1516.86L55.24 1515.59ZM67 1516.85H68.2712V1515.71L67.1354 1515.59L67 1516.85ZM67 1525.34L66.8457 1526.6L68.2712 1526.77V1525.34H67ZM4.504 1517.69H3.23276V1518.82L4.34966 1518.95L4.504 1517.69ZM4.504 1506.44L4.33965 1505.18L3.23276 1505.32V1506.44H4.504ZM67 1498.29H68.2712V1496.84L66.8357 1497.03L67 1498.29ZM45.7781 1508.45L22.6781 1510.97L22.9539 1513.5L46.0539 1510.98L45.7781 1508.45ZM22.6827 1513.5L45.7827 1515.93L46.0493 1513.4L22.9493 1510.97L22.6827 1513.5ZM47.1872 1514.67V1509.71H44.6448V1514.67H47.1872ZM66.8646 1506.18L55.1046 1507.44L55.3754 1509.97L67.1354 1508.71L66.8646 1506.18ZM53.9688 1508.7V1515.59H56.5112V1508.7H53.9688ZM55.1046 1516.86L66.8646 1518.12L67.1354 1515.59L55.3754 1514.33L55.1046 1516.86ZM65.7288 1516.85L65.7288 1525.34H68.2712L68.2712 1516.85H65.7288ZM67.1543 1524.07L4.65834 1516.43L4.34966 1518.95L66.8457 1526.6L67.1543 1524.07ZM5.77523 1517.69L5.77523 1506.44H3.23276L3.23276 1517.69H5.77523ZM4.66835 1507.7L67.1643 1499.55L66.8357 1497.03L4.33965 1505.18L4.66835 1507.7ZM65.7288 1498.29V1507.44H68.2712V1498.29H65.7288ZM67 1493.81V1495.08H68.2712V1493.81H67ZM40.96 1493.81V1492.53H40.8126L40.6692 1492.57L40.96 1493.81ZM4.504 1502.37H3.23276V1503.98L4.79484 1503.61L4.504 1502.37ZM4.504 1493.13L4.26945 1491.88L3.23276 1492.08V1493.13H4.504ZM27.772 1488.77L28.0065 1490.01L27.9978 1487.51L27.772 1488.77ZM4.504 1484.57H3.23276V1485.63L4.27818 1485.82L4.504 1484.57ZM4.504 1476L4.7861 1474.76L3.23276 1474.4V1476H4.504ZM41.044 1484.31L40.7619 1485.55L40.9012 1485.58H41.044V1484.31ZM67 1484.31H68.2712V1483.04H67V1484.31ZM67 1492.53H40.96V1495.08H67V1492.53ZM40.6692 1492.57L4.21315 1501.14L4.79484 1503.61L41.2508 1495.04L40.6692 1492.57ZM5.77523 1502.37L5.77523 1493.13H3.23276L3.23276 1502.37H5.77523ZM4.73854 1494.38L28.0065 1490.01L27.5375 1487.52L4.26945 1491.88L4.73854 1494.38ZM27.9978 1487.51L4.72981 1483.31L4.27818 1485.82L27.5462 1490.02L27.9978 1487.51ZM5.77523 1484.57L5.77523 1476H3.23276L3.23276 1484.57H5.77523ZM4.2219 1477.24L40.7619 1485.55L41.3261 1483.07L4.7861 1474.76L4.2219 1477.24ZM41.044 1485.58H67V1483.04H41.044V1485.58ZM65.7288 1484.31V1493.81H68.2712V1484.31H65.7288Z" fill="black" mask="url(#path-1-outside-1_901_903)"/>
<path d="M72 1403.54C72 1400.04 68.7182 1397.34 64.0442 1397.34C61.7569 1397.34 58.0773 1398.24 52.9061 1399.94C47.7348 1401.64 42.9613 1402.54 38.6851 1402.54H37.3923C40.1768 1398.14 42.4641 1395.14 44.0552 1393.74C47.337 1390.84 56.6851 1383.24 56.6851 1377.34C56.6851 1373.84 54.1989 1371.44 51.2155 1371.44C49.5249 1371.44 48.0331 1372.14 46.5414 1373.54C43.6575 1376.34 42.2652 1382.54 40.674 1389.84C39.8784 1393.54 38.3867 1397.44 36 1401.74C33.6133 1397.34 32.0221 1393.34 31.2265 1389.54C30.4309 1385.84 29.6354 1382.54 28.7403 1379.74C26.8508 1373.94 23.9669 1371.44 20.5856 1371.44C17.5028 1371.44 15.3149 1373.84 15.3149 1377.04C15.3149 1379.04 15.9116 1380.94 17.2044 1382.84C18.3978 1384.64 21.5801 1387.94 26.7514 1392.64C31.4254 1397.54 31.0276 1396.84 34.6077 1402.54C29.8343 1402.54 24.7624 1401.64 19.4917 1399.84C14.221 1398.04 10.3425 1397.14 7.9558 1397.14C3.18232 1397.14 0 1399.84 0 1403.34C0 1406.94 3.38121 1409.54 7.9558 1409.54C11.4365 1409.54 18.895 1407.04 23.6685 1405.44C26.0552 1404.64 29.337 1404.34 33.3149 1404.34H34.6077C32.221 1408.34 29.7348 1411.44 27.2486 1413.64C22.2762 1418.04 15.3149 1424.24 15.3149 1429.54C15.3149 1433.04 17.6022 1435.44 20.5856 1435.44C22.2762 1435.44 23.8674 1434.74 25.3591 1433.44C28.3425 1430.84 29.6354 1424.84 31.2265 1417.34C32.0221 1413.54 33.6133 1409.44 36 1405.14C38.3867 1409.34 39.9779 1413.34 40.674 1416.94C41.3702 1420.64 42.2652 1423.94 43.0608 1426.84C44.6519 1432.74 47.9337 1435.44 51.2155 1435.44C54.1989 1435.44 56.6851 1432.84 56.6851 1429.64C56.6851 1424.44 51.2155 1419.54 45.6464 1414.54C42.8619 1412.04 40.0773 1408.74 37.3923 1404.34C42.5635 1404.34 47.5359 1405.24 52.7072 1407.04C57.779 1408.84 61.558 1409.74 64.0442 1409.74C68.5193 1409.74 72 1407.24 72 1403.54Z" fill="black"/>
<mask id="path-4-outside-2_901_903" maskUnits="userSpaceOnUse" x="2" y="1132.76" width="67" height="199" fill="black">
<rect fill="white" x="2" y="1132.76" width="67" height="199"/>
<path d="M39.448 1329.66V1320.34H54.82C57.004 1320.34 58.264 1319.84 58.264 1318.07V1317.74C58.264 1315.97 56.752 1315.55 54.82 1315.55H4.504L4.504 1305.89H55.576C63.724 1305.89 67.504 1310.09 67.504 1316.64V1319.25C67.504 1325.38 64.732 1329.66 56.164 1329.66H39.448ZM39.448 1303.33V1294.01H54.82C57.004 1294.01 58.264 1293.5 58.264 1291.74V1291.4C58.264 1289.64 56.752 1289.22 54.82 1289.22H4.504L4.504 1279.56H55.576C63.724 1279.56 67.504 1283.76 67.504 1290.31V1292.92C67.504 1299.05 64.732 1303.33 56.164 1303.33H39.448ZM41.044 1252.6V1258.14H67V1267.63H4.504L4.504 1252.6C4.504 1245.88 7.36 1242.85 14.836 1242.85H29.62C37.012 1242.85 41.044 1246.13 41.044 1252.6ZM12.988 1258.14H32.056V1255.71C32.056 1252.85 30.04 1252.43 27.52 1252.43H17.272C14.836 1252.43 12.988 1252.93 12.988 1255.71V1258.14ZM45.916 1228.92L22.816 1231.44L45.916 1233.88V1228.92ZM67 1226.66L55.24 1227.92V1234.8L67 1236.06V1244.55L4.504 1236.9L4.504 1225.65L67 1217.5V1226.66ZM12.988 1206.46H30.208V1203.94C30.208 1201.34 28.528 1200.5 25.756 1200.5H17.02C14.332 1200.5 12.988 1201.09 12.988 1203.94V1206.46ZM39.112 1206.46H67V1215.95H4.504L4.504 1200.58C4.504 1194.28 7.192 1191.09 14.164 1191.09H25.252C30.46 1191.09 32.476 1193.53 33.232 1195.21C34.156 1193.11 35.836 1191.09 40.036 1191.09H61.96C64.48 1191.09 65.656 1190.59 66.58 1190.17H67V1199.57C66.328 1199.99 65.236 1200.5 61.876 1200.5H43.06C40.288 1200.5 39.112 1201 39.112 1204.03V1206.46ZM67 1178.32V1187.82H4.504V1178.32H29.536L4.504 1170.85L4.504 1161.61L33.568 1170.43L67 1160.68V1170.43L39.868 1178.32H67ZM67.672 1149.01C67.672 1156.57 63.556 1160.6 55.828 1160.6H43.312L43.312 1151.19H54.232C57.088 1151.19 58.6 1150.27 58.6 1148.08C58.6 1145.82 57.088 1144.98 53.224 1144.98H51.796C47.344 1144.98 45.748 1145.4 41.296 1148.84L33.568 1154.89C28.36 1158.92 24.328 1160.1 18.112 1160.1H16.096C7.78 1160.1 3.916 1155.9 3.916 1148.42L3.916 1146.66C3.916 1138.84 7.36 1135.82 14.752 1135.82H25V1144.98H16.012C13.912 1144.98 12.316 1145.4 12.316 1147.66C12.316 1149.93 13.744 1150.44 16.684 1150.44H17.86C21.388 1150.44 23.32 1149.76 27.436 1146.57L35.248 1140.52C40.792 1136.24 43.984 1134.9 51.04 1134.9H53.056C62.212 1134.9 67.672 1138.84 67.672 1147.16V1149.01Z"/>
</mask>
<path d="M39.448 1329.66H38.1768V1330.94H39.448V1329.66ZM39.448 1320.34V1319.07H38.1768V1320.34H39.448ZM4.504 1315.55H3.23276V1316.82H4.504V1315.55ZM4.504 1305.89V1304.62H3.23276V1305.89H4.504ZM40.7192 1329.66V1320.34H38.1768V1329.66H40.7192ZM39.448 1321.61H54.82V1319.07H39.448V1321.61ZM54.82 1321.61C55.9501 1321.61 57.1071 1321.49 58.0064 1320.96C58.4866 1320.68 58.8904 1320.28 59.1629 1319.75C59.4299 1319.24 59.5352 1318.66 59.5352 1318.07H56.9928C56.9928 1318.36 56.9406 1318.52 56.9031 1318.59C56.8711 1318.65 56.8234 1318.71 56.7156 1318.77C56.4389 1318.94 55.8739 1319.07 54.82 1319.07V1321.61ZM59.5352 1318.07V1317.74H56.9928V1318.07H59.5352ZM59.5352 1317.74C59.5352 1317.11 59.3994 1316.52 59.0885 1316C58.7767 1315.48 58.3372 1315.11 57.8578 1314.86C56.951 1314.38 55.8267 1314.28 54.82 1314.28V1316.82C55.7453 1316.82 56.343 1316.93 56.6752 1317.11C56.8153 1317.18 56.8745 1317.25 56.9066 1317.3C56.9396 1317.36 56.9928 1317.48 56.9928 1317.74H59.5352ZM54.82 1314.28H4.504V1316.82H54.82V1314.28ZM5.77523 1315.55L5.77523 1305.89H3.23276L3.23276 1315.55H5.77523ZM4.504 1307.16H55.576V1304.62H4.504V1307.16ZM55.576 1307.16C59.4434 1307.16 62.0663 1308.16 63.719 1309.73C65.363 1311.3 66.2328 1313.61 66.2328 1316.64H68.7752C68.7752 1313.13 67.755 1310.06 65.472 1307.89C63.1977 1305.73 59.8566 1304.62 55.576 1304.62V1307.16ZM66.2328 1316.64V1319.25H68.7752V1316.64H66.2328ZM66.2328 1319.25C66.2328 1322.15 65.5751 1324.37 64.1299 1325.88C62.6934 1327.37 60.2532 1328.39 56.164 1328.39V1330.94C60.6428 1330.94 63.8726 1329.81 65.9641 1327.64C68.0469 1325.47 68.7752 1322.48 68.7752 1319.25H66.2328ZM56.164 1328.39H39.448V1330.94H56.164V1328.39ZM39.448 1303.33H38.1768V1304.6H39.448V1303.33ZM39.448 1294.01V1292.74H38.1768V1294.01H39.448ZM4.504 1289.22H3.23276V1290.49H4.504V1289.22ZM4.504 1279.56V1278.29H3.23276V1279.56H4.504ZM40.7192 1303.33V1294.01H38.1768V1303.33H40.7192ZM39.448 1295.28H54.82V1292.74H39.448V1295.28ZM54.82 1295.28C55.9501 1295.28 57.1071 1295.16 58.0064 1294.63C58.4866 1294.35 58.8904 1293.95 59.1629 1293.42C59.4299 1292.9 59.5352 1292.33 59.5352 1291.74H56.9928C56.9928 1292.03 56.9406 1292.18 56.9031 1292.26C56.8711 1292.32 56.8234 1292.38 56.7156 1292.44C56.4389 1292.6 55.8739 1292.74 54.82 1292.74V1295.28ZM59.5352 1291.74V1291.4H56.9928V1291.74H59.5352ZM59.5352 1291.4C59.5352 1290.78 59.3994 1290.19 59.0885 1289.67C58.7767 1289.15 58.3372 1288.78 57.8578 1288.53C56.951 1288.05 55.8267 1287.95 54.82 1287.95V1290.49C55.7453 1290.49 56.343 1290.6 56.6752 1290.78C56.8153 1290.85 56.8745 1290.92 56.9066 1290.97C56.9396 1291.03 56.9928 1291.15 56.9928 1291.4H59.5352ZM54.82 1287.95H4.504V1290.49H54.82V1287.95ZM5.77523 1289.22L5.77523 1279.56H3.23276L3.23276 1289.22H5.77523ZM4.504 1280.83H55.576V1278.29H4.504L4.504 1280.83ZM55.576 1280.83C59.4434 1280.83 62.0663 1281.83 63.719 1283.4C65.363 1284.97 66.2328 1287.28 66.2328 1290.31H68.7752C68.7752 1286.79 67.755 1283.73 65.472 1281.56C63.1977 1279.39 59.8566 1278.29 55.576 1278.29V1280.83ZM66.2328 1290.31V1292.92H68.7752V1290.31H66.2328ZM66.2328 1292.92C66.2328 1295.82 65.5751 1298.04 64.1299 1299.54C62.6934 1301.04 60.2532 1302.06 56.164 1302.06V1304.6C60.6428 1304.6 63.8726 1303.48 65.9641 1301.3C68.0469 1299.13 68.7752 1296.15 68.7752 1292.92H66.2328ZM56.164 1302.06H39.448V1304.6H56.164V1302.06ZM41.044 1258.14H39.7728V1259.41H41.044V1258.14ZM67 1258.14H68.2712V1256.87H67V1258.14ZM67 1267.63V1268.9H68.2712V1267.63H67ZM4.504 1267.63H3.23276V1268.9H4.504V1267.63ZM12.988 1258.14H11.7168V1259.41H12.988V1258.14ZM32.056 1258.14V1259.41H33.3272V1258.14H32.056ZM39.7728 1252.6V1258.14H42.3152V1252.6H39.7728ZM41.044 1259.41H67V1256.87H41.044V1259.41ZM65.7288 1258.14V1267.63H68.2712V1258.14H65.7288ZM67 1266.36H4.504V1268.9H67V1266.36ZM5.77523 1267.63L5.77523 1252.6H3.23276L3.23276 1267.63H5.77523ZM5.77523 1252.6C5.77523 1249.38 6.46343 1247.36 7.75073 1246.12C9.04898 1244.86 11.227 1244.12 14.836 1244.12V1241.58C10.969 1241.58 7.98102 1242.36 5.98226 1244.29C3.97257 1246.24 3.23276 1249.09 3.23276 1252.6H5.77523ZM14.836 1244.12H29.62L29.62 1241.58H14.836V1244.12ZM29.62 1244.12C33.1538 1244.12 35.6691 1244.91 37.285 1246.27C38.8626 1247.6 39.7728 1249.64 39.7728 1252.6H42.3152C42.3152 1249.09 41.2094 1246.25 38.923 1244.33C36.6749 1242.43 33.4781 1241.58 29.62 1241.58L29.62 1244.12ZM12.988 1259.41H32.056V1256.87H12.988V1259.41ZM33.3272 1258.14V1255.71H30.7848V1258.14H33.3272ZM33.3272 1255.71C33.3272 1254.85 33.1758 1254.07 32.8305 1253.4C32.4782 1252.72 31.9622 1252.23 31.3576 1251.89C30.2215 1251.25 28.7822 1251.16 27.52 1251.16V1253.7C28.7777 1253.7 29.6065 1253.82 30.1084 1254.1C30.3228 1254.22 30.4683 1254.37 30.5728 1254.57C30.6842 1254.79 30.7848 1255.14 30.7848 1255.71H33.3272ZM27.52 1251.16H17.272V1253.7H27.52V1251.16ZM17.272 1251.16C16.0311 1251.16 14.6421 1251.27 13.5494 1251.95C12.3154 1252.71 11.7168 1254 11.7168 1255.71H14.2592C14.2592 1254.64 14.5846 1254.29 14.8836 1254.11C15.3239 1253.84 16.0769 1253.7 17.272 1253.7V1251.16ZM11.7168 1255.71V1258.14H14.2592V1255.71H11.7168ZM45.916 1228.92H47.1872V1227.51L45.7781 1227.66L45.916 1228.92ZM22.816 1231.44L22.6781 1230.18L22.6827 1232.71L22.816 1231.44ZM45.916 1233.88L45.7827 1235.14L47.1872 1235.29V1233.88H45.916ZM67 1226.66L67.1354 1227.92L68.2712 1227.8V1226.66H67ZM55.24 1227.92L55.1046 1226.65L53.9688 1226.77V1227.92H55.24ZM55.24 1234.8H53.9688V1235.95L55.1046 1236.07L55.24 1234.8ZM67 1236.06H68.2712V1234.92L67.1354 1234.8L67 1236.06ZM67 1244.55L66.8457 1245.81L68.2712 1245.98V1244.55H67ZM4.504 1236.9H3.23276V1238.03L4.34966 1238.17L4.504 1236.9ZM4.504 1225.65L4.33965 1224.39L3.23276 1224.53V1225.65H4.504ZM67 1217.5H68.2712V1216.05L66.8357 1216.24L67 1217.5ZM45.7781 1227.66L22.6781 1230.18L22.9539 1232.71L46.0539 1230.19L45.7781 1227.66ZM22.6827 1232.71L45.7827 1235.14L46.0493 1232.62L22.9493 1230.18L22.6827 1232.71ZM47.1872 1233.88V1228.92H44.6448V1233.88H47.1872ZM66.8646 1225.39L55.1046 1226.65L55.3754 1229.18L67.1354 1227.92L66.8646 1225.39ZM53.9688 1227.92V1234.8H56.5112V1227.92H53.9688ZM55.1046 1236.07L66.8646 1237.33L67.1354 1234.8L55.3754 1233.54L55.1046 1236.07ZM65.7288 1236.06V1244.55H68.2712V1236.06H65.7288ZM67.1543 1243.29L4.65834 1235.64L4.34966 1238.17L66.8457 1245.81L67.1543 1243.29ZM5.77523 1236.9L5.77523 1225.65H3.23276L3.23276 1236.9H5.77523ZM4.66835 1226.91L67.1643 1218.76L66.8357 1216.24L4.33965 1224.39L4.66835 1226.91ZM65.7288 1217.5V1226.66H68.2712V1217.5H65.7288ZM12.988 1206.46H11.7168V1207.73H12.988V1206.46ZM30.208 1206.46V1207.73H31.4792V1206.46H30.208ZM39.112 1206.46H37.8408V1207.73H39.112V1206.46ZM67 1206.46H68.2712V1205.19H67V1206.46ZM67 1215.95V1217.22H68.2712V1215.95H67ZM4.504 1215.95H3.23276V1217.22H4.504V1215.95ZM33.232 1195.21L32.0727 1195.73L33.2451 1198.33L34.3956 1195.72L33.232 1195.21ZM66.58 1190.17V1188.89H66.3046L66.054 1189.01L66.58 1190.17ZM67 1190.17H68.2712V1188.89H67V1190.17ZM67 1199.57L67.6738 1200.65L68.2712 1200.28V1199.57H67ZM12.988 1207.73H30.208V1205.19H12.988V1207.73ZM31.4792 1206.46V1203.94H28.9368V1206.46H31.4792ZM31.4792 1203.94C31.4792 1202.34 30.9402 1201.03 29.7495 1200.2C28.6573 1199.44 27.2198 1199.23 25.756 1199.23V1201.77C27.0642 1201.77 27.8527 1201.98 28.2935 1202.29C28.6358 1202.52 28.9368 1202.94 28.9368 1203.94H31.4792ZM25.756 1199.23H17.02V1201.77H25.756V1199.23ZM17.02 1199.23C15.6688 1199.23 14.2712 1199.35 13.2333 1200.13C12.0917 1200.99 11.7168 1202.35 11.7168 1203.94H14.2592C14.2592 1202.68 14.5563 1202.32 14.7587 1202.17C15.0648 1201.94 15.6832 1201.77 17.02 1201.77V1199.23ZM11.7168 1203.94V1206.46H14.2592V1203.94H11.7168ZM39.112 1207.73H67V1205.19H39.112V1207.73ZM65.7288 1206.46V1215.95H68.2712V1206.46H65.7288ZM67 1214.68H4.504V1217.22H67V1214.68ZM5.77523 1215.95L5.77523 1200.58H3.23276L3.23276 1215.95H5.77523ZM5.77523 1200.58C5.77523 1197.58 6.4203 1195.6 7.63038 1194.36C8.83428 1193.12 10.8441 1192.36 14.164 1192.36V1189.82C10.5119 1189.82 7.69172 1190.65 5.80862 1192.59C3.9317 1194.51 3.23276 1197.28 3.23276 1200.58H5.77523ZM14.164 1192.36H25.252V1189.82H14.164V1192.36ZM25.252 1192.36C27.652 1192.36 29.2059 1192.92 30.2146 1193.58C31.2256 1194.24 31.7749 1195.07 32.0727 1195.73L34.3913 1194.68C33.9331 1193.67 33.0964 1192.43 31.6084 1191.45C30.1181 1190.48 28.06 1189.82 25.252 1189.82V1192.36ZM34.3956 1195.72C34.805 1194.79 35.3373 1193.98 36.1502 1193.39C36.9528 1192.81 38.1477 1192.36 40.036 1192.36V1189.82C37.7242 1189.82 35.9791 1190.38 34.6608 1191.33C33.3527 1192.28 32.583 1193.52 32.0684 1194.69L34.3956 1195.72ZM40.036 1192.36H61.96V1189.82H40.036V1192.36ZM61.96 1192.36C64.7073 1192.36 66.0643 1191.8 67.106 1191.32L66.054 1189.01C65.2477 1189.37 64.2527 1189.82 61.96 1189.82V1192.36ZM66.58 1191.44H67V1188.89H66.58V1191.44ZM65.7288 1190.17V1199.57H68.2712V1190.17H65.7288ZM66.3262 1198.5C65.9288 1198.74 65.1008 1199.23 61.876 1199.23V1201.77C65.3712 1201.77 66.7272 1201.24 67.6738 1200.65L66.3262 1198.5ZM61.876 1199.23H43.06V1201.77H61.876V1199.23ZM43.06 1199.23C41.7064 1199.23 40.2872 1199.32 39.2604 1200.13C38.1391 1201.01 37.8408 1202.42 37.8408 1204.03H40.3832C40.3832 1202.61 40.6729 1202.25 40.8326 1202.13C41.0868 1201.93 41.6416 1201.77 43.06 1201.77V1199.23ZM37.8408 1204.03V1206.46H40.3832V1204.03H37.8408ZM67 1178.32H68.2712V1177.05H67V1178.32ZM67 1187.82V1189.09H68.2712V1187.82H67ZM4.504 1187.82H3.23276V1189.09H4.504V1187.82ZM4.504 1178.32L4.504 1177.05H3.23276V1178.32H4.504ZM29.536 1178.32V1179.6L29.8998 1177.11L29.536 1178.32ZM4.504 1170.85H3.23276V1171.8L4.14021 1172.07L4.504 1170.85ZM4.504 1161.61L4.87315 1160.39L3.23276 1159.89V1161.61H4.504ZM33.568 1170.43L33.1988 1171.65L33.5607 1171.75L33.9237 1171.65L33.568 1170.43ZM67 1160.68H68.2712V1158.99L66.6443 1159.46L67 1160.68ZM67 1170.43L67.3552 1171.65L68.2712 1171.38V1170.43H67ZM39.868 1178.32L39.5128 1177.1L39.868 1179.6V1178.32ZM65.7288 1178.32V1187.82H68.2712V1178.32H65.7288ZM67 1186.55H4.504V1189.09H67V1186.55ZM5.77523 1187.82V1178.32H3.23276L3.23276 1187.82H5.77523ZM4.504 1179.6H29.536V1177.05H4.504L4.504 1179.6ZM29.8998 1177.11L4.86778 1169.63L4.14021 1172.07L29.1722 1179.54L29.8998 1177.11ZM5.77523 1170.85L5.77523 1161.61H3.23276L3.23276 1170.85H5.77523ZM4.13484 1162.83L33.1988 1171.65L33.9372 1169.21L4.87315 1160.39L4.13484 1162.83ZM33.9237 1171.65L67.3557 1161.91L66.6443 1159.46L33.2123 1169.21L33.9237 1171.65ZM65.7288 1160.68V1170.43H68.2712V1160.68H65.7288ZM66.6448 1169.21L39.5128 1177.1L40.2232 1179.55L67.3552 1171.65L66.6448 1169.21ZM39.868 1179.6H67V1177.05H39.868V1179.6ZM43.312 1160.6H42.0408V1161.87H43.312V1160.6ZM43.312 1151.19V1149.92H42.0408V1151.19H43.312ZM41.296 1148.84L40.5182 1147.83L40.5125 1147.84L41.296 1148.84ZM33.568 1154.89L34.3462 1155.89L34.3515 1155.89L33.568 1154.89ZM25 1135.82H26.2712V1134.55H25V1135.82ZM25 1144.98V1146.25H26.2712V1144.98H25ZM27.436 1146.57L26.6578 1145.57L26.657 1145.57L27.436 1146.57ZM35.248 1140.52L34.4707 1139.52L34.4698 1139.52L35.248 1140.52ZM66.4008 1149.01C66.4008 1152.56 65.4363 1155.09 63.7587 1156.73C62.0767 1158.38 59.4825 1159.33 55.828 1159.33V1161.87C59.9015 1161.87 63.2293 1160.81 65.5373 1158.55C67.8497 1156.28 68.9432 1153.01 68.9432 1149.01H66.4008ZM55.828 1159.33H43.312V1161.87H55.828V1159.33ZM44.5832 1160.6L44.5832 1151.19H42.0408L42.0408 1160.6H44.5832ZM43.312 1152.46H54.232V1149.92H43.312V1152.46ZM54.232 1152.46C55.7523 1152.46 57.1554 1152.23 58.2059 1151.51C59.3514 1150.72 59.8712 1149.51 59.8712 1148.08H57.3288C57.3288 1148.84 57.0926 1149.19 56.7681 1149.41C56.3486 1149.7 55.5677 1149.92 54.232 1149.92V1152.46ZM59.8712 1148.08C59.8712 1147.38 59.7545 1146.69 59.4366 1146.07C59.1112 1145.43 58.6161 1144.93 57.9932 1144.58C56.8211 1143.9 55.1815 1143.7 53.224 1143.7V1146.25C55.1305 1146.25 56.1789 1146.47 56.7288 1146.78C56.9669 1146.92 57.0913 1147.06 57.1701 1147.22C57.2565 1147.39 57.3288 1147.65 57.3288 1148.08H59.8712ZM53.224 1143.7H51.796V1146.25H53.224V1143.7ZM51.796 1143.7C49.5474 1143.7 47.8505 1143.81 46.1216 1144.42C44.4083 1145.03 42.763 1146.1 40.5182 1147.83L42.0738 1149.85C44.281 1148.14 45.6597 1147.28 46.9704 1146.81C48.2655 1146.36 49.5926 1146.25 51.796 1146.25V1143.7ZM40.5125 1147.84L32.7845 1153.89L34.3515 1155.89L42.0795 1149.84L40.5125 1147.84ZM32.7898 1153.88C30.2667 1155.84 28.0844 1157.05 25.8223 1157.8C23.5571 1158.54 21.14 1158.82 18.112 1158.82V1161.37C21.3 1161.37 24.0069 1161.07 26.6137 1160.21C29.2236 1159.36 31.6613 1157.97 34.3462 1155.89L32.7898 1153.88ZM18.112 1158.82H16.096V1161.37H18.112V1158.82ZM16.096 1158.82C12.1373 1158.82 9.46761 1157.83 7.78165 1156.16C6.0979 1154.49 5.18723 1151.95 5.18723 1148.42H2.64476C2.64476 1152.36 3.66609 1155.66 5.99334 1157.97C8.31838 1160.27 11.7387 1161.37 16.096 1161.37V1158.82ZM5.18723 1148.42V1146.66H2.64476V1148.42H5.18723ZM5.18723 1146.66C5.18723 1142.9 6.01819 1140.61 7.44738 1139.22C8.88436 1137.83 11.1907 1137.09 14.752 1137.09V1134.55C10.9213 1134.55 7.80964 1135.33 5.67661 1137.4C3.5358 1139.47 2.64476 1142.6 2.64476 1146.66H5.18723ZM14.752 1137.09H25V1134.55H14.752V1137.09ZM23.7288 1135.82V1144.98H26.2712V1135.82H23.7288ZM25 1143.7H16.012V1146.25H25V1143.7ZM16.012 1143.7C14.9407 1143.7 13.7118 1143.8 12.7327 1144.37C12.2106 1144.68 11.7669 1145.12 11.4653 1145.71C11.17 1146.29 11.0448 1146.95 11.0448 1147.66H13.5872C13.5872 1147.24 13.6615 1147 13.731 1146.86C13.7943 1146.74 13.8809 1146.65 14.0203 1146.57C14.3642 1146.36 14.9833 1146.25 16.012 1146.25V1143.7ZM11.0448 1147.66C11.0448 1148.36 11.1527 1149.02 11.444 1149.61C11.7452 1150.23 12.2043 1150.69 12.772 1151.01C13.8173 1151.6 15.2208 1151.71 16.684 1151.71V1149.16C15.2072 1149.16 14.4267 1149.02 14.023 1148.79C13.8662 1148.71 13.7845 1148.61 13.7261 1148.49C13.6578 1148.35 13.5872 1148.11 13.5872 1147.66H11.0448ZM16.684 1151.71H17.86V1149.16H16.684V1151.71ZM17.86 1151.71C19.7142 1151.71 21.2535 1151.53 22.8937 1150.88C24.5028 1150.25 26.129 1149.19 28.215 1147.58L26.657 1145.57C24.627 1147.14 23.2292 1148.02 21.9613 1148.52C20.7245 1149.01 19.5338 1149.16 17.86 1149.16V1151.71ZM28.2142 1147.58L36.0262 1141.53L34.4698 1139.52L26.6578 1145.57L28.2142 1147.58ZM36.0253 1141.53C38.7639 1139.41 40.8257 1138.1 43.0152 1137.3C45.1945 1136.5 47.5915 1136.17 51.04 1136.17V1133.62C47.4325 1133.62 44.7055 1133.97 42.1388 1134.91C39.5823 1135.85 37.2761 1137.35 34.4707 1139.52L36.0253 1141.53ZM51.04 1136.17H53.056V1133.62H51.04V1136.17ZM53.056 1136.17C57.4785 1136.17 60.802 1137.12 62.9988 1138.9C65.1488 1140.63 66.4008 1143.3 66.4008 1147.16H68.9432C68.9432 1142.7 67.4652 1139.24 64.5962 1136.92C61.774 1134.64 57.7895 1133.62 53.056 1133.62V1136.17ZM66.4008 1147.16V1149.01H68.9432V1147.16H66.4008Z" fill="black" mask="url(#path-4-outside-2_901_903)"/>
<path d="M72 1061.18C72 1057.68 68.7182 1054.98 64.0442 1054.98C61.7569 1054.98 58.0773 1055.88 52.9061 1057.58C47.7348 1059.28 42.9613 1060.18 38.6851 1060.18H37.3923C40.1768 1055.78 42.4641 1052.78 44.0552 1051.38C47.337 1048.48 56.6851 1040.88 56.6851 1034.98C56.6851 1031.48 54.1989 1029.08 51.2155 1029.08C49.5249 1029.08 48.0331 1029.78 46.5414 1031.18C43.6575 1033.98 42.2652 1040.18 40.674 1047.48C39.8784 1051.18 38.3867 1055.08 36 1059.38C33.6133 1054.98 32.0221 1050.98 31.2265 1047.18C30.4309 1043.48 29.6354 1040.18 28.7403 1037.38C26.8508 1031.58 23.9669 1029.08 20.5856 1029.08C17.5028 1029.08 15.3149 1031.48 15.3149 1034.68C15.3149 1036.68 15.9116 1038.58 17.2044 1040.48C18.3978 1042.28 21.5801 1045.58 26.7514 1050.28C31.4254 1055.18 31.0276 1054.48 34.6077 1060.18C29.8343 1060.18 24.7624 1059.28 19.4917 1057.48C14.221 1055.68 10.3425 1054.78 7.9558 1054.78C3.18232 1054.78 0 1057.48 0 1060.98C0 1064.58 3.38121 1067.18 7.9558 1067.18C11.4365 1067.18 18.895 1064.68 23.6685 1063.08C26.0552 1062.28 29.337 1061.98 33.3149 1061.98H34.6077C32.221 1065.98 29.7348 1069.08 27.2486 1071.28C22.2762 1075.68 15.3149 1081.88 15.3149 1087.18C15.3149 1090.68 17.6022 1093.08 20.5856 1093.08C22.2762 1093.08 23.8674 1092.38 25.3591 1091.08C28.3425 1088.48 29.6354 1082.48 31.2265 1074.98C32.0221 1071.18 33.6133 1067.08 36 1062.78C38.3867 1066.98 39.9779 1070.98 40.674 1074.58C41.3702 1078.28 42.2652 1081.58 43.0608 1084.48C44.6519 1090.38 47.9337 1093.08 51.2155 1093.08C54.1989 1093.08 56.6851 1090.48 56.6851 1087.28C56.6851 1082.08 51.2155 1077.18 45.6464 1072.18C42.8619 1069.68 40.0773 1066.38 37.3923 1061.98C42.5635 1061.98 47.5359 1062.88 52.7072 1064.68C57.779 1066.48 61.558 1067.38 64.0442 1067.38C68.5193 1067.38 72 1064.88 72 1061.18Z" fill="black"/>
<mask id="path-7-outside-3_901_903" maskUnits="userSpaceOnUse" x="2" y="806.398" width="67" height="183" fill="black">
<rect fill="white" x="2" y="806.398" width="67" height="183"/>
<path d="M39.448 987.306V977.982H54.82C57.004 977.982 58.264 977.478 58.264 975.714V975.378C58.264 973.614 56.752 973.194 54.82 973.194H4.504L4.504 963.534H55.576C63.724 963.534 67.504 967.734 67.504 974.286V976.89C67.504 983.022 64.732 987.306 56.164 987.306H39.448ZM39.448 960.974V951.65H54.82C57.004 951.65 58.264 951.146 58.264 949.382V949.046C58.264 947.282 56.752 946.862 54.82 946.862H4.504L4.504 937.202H55.576C63.724 937.202 67.504 941.402 67.504 947.954V950.558C67.504 956.69 64.732 960.974 56.164 960.974H39.448ZM67.672 922.969C67.672 930.529 63.556 934.561 55.828 934.561H43.312L43.312 925.153H54.232C57.088 925.153 58.6 924.229 58.6 922.045C58.6 919.777 57.088 918.937 53.224 918.937H51.796C47.344 918.937 45.748 919.357 41.296 922.801L33.568 928.849C28.36 932.881 24.328 934.057 18.112 934.057H16.096C7.78 934.057 3.916 929.857 3.916 922.381L3.916 920.617C3.916 912.805 7.36 909.781 14.752 909.781H25V918.937H16.012C13.912 918.937 12.316 919.357 12.316 921.625C12.316 923.893 13.744 924.397 16.684 924.397H17.86C21.388 924.397 23.32 923.725 27.436 920.533L35.248 914.485C40.792 910.201 43.984 908.857 51.04 908.857H53.056C62.212 908.857 67.672 912.805 67.672 921.121V922.969ZM67 899.931H13.576V907.911H4.504L4.504 882.543H13.576L13.576 890.523H67V899.931ZM67 873.037H40.96L4.504 881.605L4.504 872.365L27.772 867.997L4.504 863.797V855.229L41.044 863.545H67V873.037ZM4.504 853.989L4.504 844.497H57.34V832.905H67V853.989H4.504ZM4.504 830.446L4.504 808.858H13.576V820.954H29.956V811.462H39.448L39.448 820.954H57.508L57.508 808.354H67L67 830.446H4.504Z"/>
</mask>
<path d="M39.448 987.306H38.1768V988.577H39.448V987.306ZM39.448 977.982V976.71H38.1768V977.982H39.448ZM4.504 973.194H3.23276V974.465H4.504V973.194ZM4.504 963.534V962.262H3.23276V963.534H4.504ZM40.7192 987.306V977.982H38.1768V987.306H40.7192ZM39.448 979.253H54.82V976.71H39.448V979.253ZM54.82 979.253C55.9501 979.253 57.1071 979.134 58.0064 978.604C58.4866 978.321 58.8904 977.923 59.1629 977.395C59.4299 976.877 59.5352 976.304 59.5352 975.714H56.9928C56.9928 976.006 56.9406 976.157 56.9031 976.23C56.8711 976.292 56.8234 976.35 56.7156 976.414C56.4389 976.577 55.8739 976.71 54.82 976.71V979.253ZM59.5352 975.714V975.378H56.9928V975.714H59.5352ZM59.5352 975.378C59.5352 974.751 59.3994 974.159 59.0885 973.64C58.7767 973.118 58.3372 972.751 57.8578 972.499C56.951 972.022 55.8267 971.922 54.82 971.922V974.465C55.7453 974.465 56.343 974.575 56.6752 974.749C56.8153 974.823 56.8745 974.891 56.9066 974.945C56.9396 975 56.9928 975.122 56.9928 975.378H59.5352ZM54.82 971.922H4.504V974.465H54.82V971.922ZM5.77523 973.194L5.77523 963.534H3.23276L3.23276 973.194H5.77523ZM4.504 964.805H55.576V962.262H4.504V964.805ZM55.576 964.805C59.4434 964.805 62.0663 965.8 63.719 967.373C65.363 968.938 66.2328 971.252 66.2328 974.286H68.7752C68.7752 970.767 67.755 967.705 65.472 965.532C63.1977 963.367 59.8566 962.262 55.576 962.262V964.805ZM66.2328 974.286V976.89H68.7752V974.286H66.2328ZM66.2328 976.89C66.2328 979.789 65.5751 982.011 64.1299 983.517C62.6934 985.013 60.2532 986.034 56.164 986.034V988.577C60.6428 988.577 63.8726 987.456 65.9641 985.277C68.0469 983.108 68.7752 980.122 68.7752 976.89H66.2328ZM56.164 986.034H39.448V988.577H56.164V986.034ZM39.448 960.974H38.1768V962.245H39.448V960.974ZM39.448 951.65V950.378H38.1768V951.65H39.448ZM4.504 946.862H3.23276V948.133H4.504V946.862ZM4.504 937.202V935.93H3.23276V937.202H4.504ZM40.7192 960.974V951.65H38.1768V960.974H40.7192ZM39.448 952.921H54.82V950.378H39.448V952.921ZM54.82 952.921C55.9501 952.921 57.1071 952.802 58.0064 952.272C58.4866 951.989 58.8904 951.591 59.1629 951.063C59.4299 950.545 59.5352 949.972 59.5352 949.382H56.9928C56.9928 949.674 56.9406 949.825 56.9031 949.898C56.8711 949.96 56.8234 950.018 56.7156 950.082C56.4389 950.245 55.8739 950.378 54.82 950.378V952.921ZM59.5352 949.382V949.046H56.9928V949.382H59.5352ZM59.5352 949.046C59.5352 948.419 59.3994 947.827 59.0885 947.308C58.7767 946.786 58.3372 946.419 57.8578 946.167C56.951 945.69 55.8267 945.59 54.82 945.59V948.133C55.7453 948.133 56.343 948.243 56.6752 948.417C56.8153 948.491 56.8745 948.559 56.9066 948.613C56.9396 948.668 56.9928 948.79 56.9928 949.046H59.5352ZM54.82 945.59H4.504V948.133H54.82V945.59ZM5.77523 946.862L5.77523 937.202H3.23276L3.23276 946.862H5.77523ZM4.504 938.473H55.576V935.93H4.504L4.504 938.473ZM55.576 938.473C59.4434 938.473 62.0663 939.468 63.719 941.041C65.363 942.606 66.2328 944.92 66.2328 947.954H68.7752C68.7752 944.435 67.755 941.373 65.472 939.2C63.1977 937.035 59.8566 935.93 55.576 935.93V938.473ZM66.2328 947.954V950.558H68.7752V947.954H66.2328ZM66.2328 950.558C66.2328 953.457 65.5751 955.679 64.1299 957.185C62.6934 958.681 60.2532 959.702 56.164 959.702V962.245C60.6428 962.245 63.8726 961.124 65.9641 958.945C68.0469 956.776 68.7752 953.79 68.7752 950.558H66.2328ZM56.164 959.702H39.448V962.245H56.164V959.702ZM43.312 934.561H42.0408V935.833H43.312V934.561ZM43.312 925.153V923.882H42.0408V925.153H43.312ZM41.296 922.801L40.5182 921.796L40.5125 921.8L41.296 922.801ZM33.568 928.849L34.3462 929.855L34.3515 929.851L33.568 928.849ZM25 909.781H26.2712V908.51H25V909.781ZM25 918.937V920.209H26.2712V918.937H25ZM27.436 920.533L26.6578 919.528L26.657 919.529L27.436 920.533ZM35.248 914.485L34.4707 913.48L34.4698 913.48L35.248 914.485ZM66.4008 922.969C66.4008 926.526 65.4363 929.05 63.7587 930.692C62.0767 932.339 59.4825 933.29 55.828 933.29V935.833C59.9015 935.833 63.2293 934.768 65.5373 932.509C67.8497 930.245 68.9432 926.973 68.9432 922.969H66.4008ZM55.828 933.29H43.312V935.833H55.828V933.29ZM44.5832 934.561L44.5832 925.153H42.0408L42.0408 934.561H44.5832ZM43.312 926.425H54.232V923.882H43.312V926.425ZM54.232 926.425C55.7523 926.425 57.1554 926.187 58.2059 925.467C59.3514 924.681 59.8712 923.471 59.8712 922.045H57.3288C57.3288 922.804 57.0926 923.148 56.7681 923.37C56.3486 923.658 55.5677 923.882 54.232 923.882V926.425ZM59.8712 922.045C59.8712 921.342 59.7545 920.652 59.4366 920.027C59.1112 919.387 58.6161 918.895 57.9932 918.538C56.8211 917.866 55.1815 917.666 53.224 917.666V920.209C55.1305 920.209 56.1789 920.429 56.7288 920.744C56.9669 920.88 57.0913 921.024 57.1701 921.179C57.2565 921.349 57.3288 921.615 57.3288 922.045H59.8712ZM53.224 917.666H51.796V920.209H53.224V917.666ZM51.796 917.666C49.5474 917.666 47.8505 917.767 46.1216 918.38C44.4083 918.986 42.763 920.059 40.5182 921.796L42.0738 923.807C44.281 922.1 45.6597 921.24 46.9704 920.776C48.2655 920.318 49.5926 920.209 51.796 920.209V917.666ZM40.5125 921.8L32.7845 927.848L34.3515 929.851L42.0795 923.803L40.5125 921.8ZM32.7898 927.844C30.2667 929.798 28.0844 931.016 25.8223 931.757C23.5571 932.499 21.14 932.786 18.112 932.786V935.329C21.3 935.329 24.0069 935.027 26.6137 934.174C29.2236 933.319 31.6613 931.933 34.3462 929.855L32.7898 927.844ZM18.112 932.786H16.096V935.329H18.112V932.786ZM16.096 932.786C12.1373 932.786 9.46761 931.788 7.78165 930.119C6.0979 928.453 5.18723 925.913 5.18723 922.381H2.64476C2.64476 926.326 3.66609 929.624 5.99334 931.927C8.31838 934.227 11.7387 935.329 16.096 935.329V932.786ZM5.18723 922.381V920.617H2.64476V922.381H5.18723ZM5.18723 920.617C5.18723 916.865 6.01819 914.569 7.44738 913.182C8.88436 911.787 11.1907 911.053 14.752 911.053V908.51C10.9213 908.51 7.80964 909.287 5.67661 911.358C3.5358 913.436 2.64476 916.557 2.64476 920.617H5.18723ZM14.752 911.053H25V908.51H14.752V911.053ZM23.7288 909.781V918.937H26.2712V909.781H23.7288ZM25 917.666H16.012V920.209H25V917.666ZM16.012 917.666C14.9407 917.666 13.7118 917.76 12.7327 918.335C12.2106 918.641 11.7669 919.079 11.4653 919.672C11.17 920.252 11.0448 920.913 11.0448 921.625H13.5872C13.5872 921.204 13.6615 920.962 13.731 920.825C13.7943 920.701 13.8809 920.609 14.0203 920.527C14.3642 920.325 14.9833 920.209 16.012 920.209V917.666ZM11.0448 921.625C11.0448 922.318 11.1527 922.983 11.444 923.576C11.7452 924.189 12.2043 924.648 12.772 924.969C13.8173 925.56 15.2208 925.669 16.684 925.669V923.126C15.2072 923.126 14.4267 922.983 14.023 922.755C13.8662 922.667 13.7845 922.574 13.7261 922.455C13.6578 922.316 13.5872 922.067 13.5872 921.625H11.0448ZM16.684 925.669H17.86V923.126H16.684V925.669ZM17.86 925.669C19.7142 925.669 21.2535 925.492 22.8937 924.845C24.5028 924.211 26.129 923.156 28.215 921.538L26.657 919.529C24.627 921.103 23.2292 921.98 21.9613 922.48C20.7245 922.967 19.5338 923.126 17.86 923.126V925.669ZM28.2142 921.539L36.0262 915.491L34.4698 913.48L26.6578 919.528L28.2142 921.539ZM36.0253 915.491C38.7639 913.375 40.8257 912.062 43.0152 911.258C45.1945 910.458 47.5915 910.129 51.04 910.129V907.586C47.4325 907.586 44.7055 907.929 42.1388 908.872C39.5823 909.811 37.2761 911.312 34.4707 913.48L36.0253 915.491ZM51.04 910.129H53.056V907.586H51.04V910.129ZM53.056 910.129C57.4785 910.129 60.802 911.086 62.9988 912.86C65.1488 914.596 66.4008 917.262 66.4008 921.121H68.9432C68.9432 916.665 67.4652 913.199 64.5962 910.882C61.774 908.603 57.7895 907.586 53.056 907.586V910.129ZM66.4008 921.121V922.969H68.9432V921.121H66.4008ZM67 899.931V901.202H68.2712V899.931H67ZM13.576 899.931V898.66H12.3048V899.931H13.576ZM13.576 907.911V909.182H14.8472V907.911H13.576ZM4.504 907.911H3.23276V909.182H4.504L4.504 907.911ZM4.504 882.543V881.272H3.23276L3.23276 882.543H4.504ZM13.576 882.543H14.8472V881.272H13.576V882.543ZM13.576 890.523H12.3048V891.794H13.576V890.523ZM67 890.523H68.2712V889.252H67V890.523ZM67 898.66H13.576V901.202H67V898.66ZM12.3048 899.931V907.911H14.8472V899.931H12.3048ZM13.576 906.64H4.504L4.504 909.182H13.576V906.64ZM5.77523 907.911L5.77523 882.543H3.23276L3.23276 907.911H5.77523ZM4.504 883.814H13.576V881.272H4.504V883.814ZM12.3048 882.543V890.523H14.8472L14.8472 882.543H12.3048ZM13.576 891.794H67V889.252H13.576V891.794ZM65.7288 890.523V899.931H68.2712V890.523H65.7288ZM67 873.037V874.308H68.2712V873.037H67ZM40.96 873.037V871.765H40.8126L40.6692 871.799L40.96 873.037ZM4.504 881.605H3.23276V883.209L4.79484 882.842L4.504 881.605ZM4.504 872.365L4.26945 871.115L3.23276 871.31V872.365H4.504ZM27.772 867.997L28.0065 869.246L27.9978 866.746L27.772 867.997ZM4.504 863.797H3.23276V864.859L4.27818 865.048L4.504 863.797ZM4.504 855.229L4.7861 853.989L3.23276 853.636V855.229H4.504ZM41.044 863.545L40.7619 864.784L40.9012 864.816H41.044V863.545ZM67 863.545H68.2712V862.273H67V863.545ZM67 871.765H40.96V874.308H67V871.765ZM40.6692 871.799L4.21315 880.367L4.79484 882.842L41.2508 874.274L40.6692 871.799ZM5.77523 881.605L5.77523 872.365H3.23276L3.23276 881.605H5.77523ZM4.73854 873.614L28.0065 869.246L27.5375 866.747L4.26945 871.115L4.73854 873.614ZM27.9978 866.746L4.72981 862.546L4.27818 865.048L27.5462 869.248L27.9978 866.746ZM5.77523 863.797V855.229H3.23276L3.23276 863.797H5.77523ZM4.2219 856.468L40.7619 864.784L41.3261 862.305L4.7861 853.989L4.2219 856.468ZM41.044 864.816H67V862.273H41.044V864.816ZM65.7288 863.545V873.037H68.2712V863.545H65.7288ZM4.504 853.989H3.23276V855.26H4.504V853.989ZM4.504 844.497V843.226H3.23276V844.497H4.504ZM57.34 844.497V845.768H58.6112V844.497H57.34ZM57.34 832.905V831.634H56.0688V832.905H57.34ZM67 832.905H68.2712V831.634H67V832.905ZM67 853.989V855.26H68.2712V853.989H67ZM5.77523 853.989L5.77523 844.497H3.23276L3.23276 853.989H5.77523ZM4.504 845.768H57.34V843.226H4.504V845.768ZM58.6112 844.497V832.905H56.0688V844.497H58.6112ZM57.34 834.176H67V831.634H57.34V834.176ZM65.7288 832.905V853.989H68.2712V832.905H65.7288ZM67 852.718H4.504V855.26H67V852.718ZM4.504 830.446H3.23276V831.717H4.504V830.446ZM4.504 808.858V807.587H3.23276V808.858H4.504ZM13.576 808.858H14.8472V807.587H13.576V808.858ZM13.576 820.954H12.3048V822.225H13.576V820.954ZM29.956 820.954V822.225H31.2272V820.954H29.956ZM29.956 811.462V810.191H28.6848V811.462H29.956ZM39.448 811.462H40.7192V810.191H39.448V811.462ZM39.448 820.954H38.1768V822.225H39.448V820.954ZM57.508 820.954V822.225H58.7792V820.954H57.508ZM57.508 808.354V807.083H56.2368V808.354H57.508ZM67 808.354H68.2712V807.083H67V808.354ZM67 830.446V831.717H68.2712V830.446H67ZM5.77523 830.446L5.77523 808.858H3.23276L3.23276 830.446H5.77523ZM4.504 810.129H13.576V807.587H4.504V810.129ZM12.3048 808.858V820.954H14.8472V808.858H12.3048ZM13.576 822.225H29.956V819.683H13.576V822.225ZM31.2272 820.954V811.462H28.6848V820.954H31.2272ZM29.956 812.733H39.448V810.191H29.956V812.733ZM38.1768 811.462L38.1768 820.954H40.7192L40.7192 811.462H38.1768ZM39.448 822.225H57.508V819.683H39.448V822.225ZM58.7792 820.954L58.7792 808.354H56.2368L56.2368 820.954H58.7792ZM57.508 809.625H67V807.083H57.508V809.625ZM65.7288 808.354L65.7288 830.446H68.2712L68.2712 808.354H65.7288ZM67 829.175H4.504V831.717H67V829.175Z" fill="black" mask="url(#path-7-outside-3_901_903)"/>
<path d="M72 734.818C72 731.318 68.7182 728.618 64.0442 728.618C61.7569 728.618 58.0773 729.518 52.9061 731.218C47.7348 732.918 42.9613 733.818 38.6851 733.818H37.3923C40.1768 729.418 42.4641 726.418 44.0552 725.018C47.337 722.118 56.6851 714.518 56.6851 708.618C56.6851 705.118 54.1989 702.718 51.2155 702.718C49.5249 702.718 48.0331 703.418 46.5414 704.818C43.6575 707.618 42.2652 713.818 40.674 721.118C39.8784 724.818 38.3867 728.718 36 733.018C33.6133 728.618 32.0221 724.618 31.2265 720.818C30.4309 717.118 29.6354 713.818 28.7403 711.018C26.8508 705.218 23.9669 702.718 20.5856 702.718C17.5028 702.718 15.3149 705.118 15.3149 708.318C15.3149 710.318 15.9116 712.218 17.2044 714.118C18.3978 715.918 21.5801 719.218 26.7514 723.918C31.4254 728.818 31.0276 728.118 34.6077 733.818C29.8343 733.818 24.7624 732.918 19.4917 731.118C14.221 729.318 10.3425 728.418 7.9558 728.418C3.18232 728.418 0 731.118 0 734.618C0 738.218 3.38121 740.818 7.9558 740.818C11.4365 740.818 18.895 738.318 23.6685 736.718C26.0552 735.918 29.337 735.618 33.3149 735.618H34.6077C32.221 739.618 29.7348 742.718 27.2486 744.918C22.2762 749.318 15.3149 755.518 15.3149 760.818C15.3149 764.318 17.6022 766.718 20.5856 766.718C22.2762 766.718 23.8674 766.018 25.3591 764.718C28.3425 762.118 29.6354 756.118 31.2265 748.618C32.0221 744.818 33.6133 740.718 36 736.418C38.3867 740.618 39.9779 744.618 40.674 748.218C41.3702 751.918 42.2652 755.218 43.0608 758.118C44.6519 764.018 47.9337 766.718 51.2155 766.718C54.1989 766.718 56.6851 764.118 56.6851 760.918C56.6851 755.718 51.2155 750.818 45.6464 745.818C42.8619 743.318 40.0773 740.018 37.3923 735.618C42.5635 735.618 47.5359 736.518 52.7072 738.318C57.779 740.118 61.558 741.018 64.0442 741.018C68.5193 741.018 72 738.518 72 734.818Z" fill="black"/>
<mask id="path-10-outside-4_901_903" maskUnits="userSpaceOnUse" x="2" y="464.039" width="67" height="199" fill="black">
<rect fill="white" x="2" y="464.039" width="67" height="199"/>
<path d="M39.448 660.947V651.623H54.82C57.004 651.623 58.264 651.119 58.264 649.355V649.019C58.264 647.255 56.752 646.835 54.82 646.835H4.504L4.504 637.175H55.576C63.724 637.175 67.504 641.375 67.504 647.927V650.531C67.504 656.663 64.732 660.947 56.164 660.947H39.448ZM39.448 634.615V625.291H54.82C57.004 625.291 58.264 624.787 58.264 623.023V622.687C58.264 620.923 56.752 620.503 54.82 620.503H4.504L4.504 610.843H55.576C63.724 610.843 67.504 615.043 67.504 621.595V624.199C67.504 630.331 64.732 634.615 56.164 634.615H39.448ZM41.044 583.879V589.423H67V598.915H4.504L4.504 583.879C4.504 577.159 7.36 574.135 14.836 574.135H29.62C37.012 574.135 41.044 577.411 41.044 583.879ZM12.988 589.423H32.056V586.987C32.056 584.131 30.04 583.711 27.52 583.711H17.272C14.836 583.711 12.988 584.215 12.988 586.987V589.423ZM45.916 560.206L22.816 562.726L45.916 565.162V560.206ZM67 557.938L55.24 559.198V566.086L67 567.346V575.83L4.504 568.186L4.504 556.93L67 548.782V557.938ZM12.988 537.744H30.208V535.224C30.208 532.62 28.528 531.78 25.756 531.78H17.02C14.332 531.78 12.988 532.368 12.988 535.224V537.744ZM39.112 537.744H67V547.236H4.504L4.504 531.864C4.504 525.564 7.192 522.372 14.164 522.372H25.252C30.46 522.372 32.476 524.808 33.232 526.488C34.156 524.388 35.836 522.372 40.036 522.372H61.96C64.48 522.372 65.656 521.868 66.58 521.448H67V530.856C66.328 531.276 65.236 531.78 61.876 531.78H43.06C40.288 531.78 39.112 532.284 39.112 535.308V537.744ZM67 509.607V519.099H4.504V509.607H29.536L4.504 502.131L4.504 492.891L33.568 501.711L67 491.967V501.711L39.868 509.607H67ZM67.672 480.29C67.672 487.85 63.556 491.882 55.828 491.882H43.312L43.312 482.474H54.232C57.088 482.474 58.6 481.55 58.6 479.366C58.6 477.098 57.088 476.258 53.224 476.258H51.796C47.344 476.258 45.748 476.678 41.296 480.122L33.568 486.17C28.36 490.202 24.328 491.378 18.112 491.378H16.096C7.78 491.378 3.916 487.178 3.916 479.702L3.916 477.938C3.916 470.126 7.36 467.102 14.752 467.102H25V476.258H16.012C13.912 476.258 12.316 476.678 12.316 478.946C12.316 481.214 13.744 481.718 16.684 481.718H17.86C21.388 481.718 23.32 481.046 27.436 477.854L35.248 471.806C40.792 467.522 43.984 466.178 51.04 466.178H53.056C62.212 466.178 67.672 470.126 67.672 478.442V480.29Z"/>
</mask>
<path d="M39.448 660.947H38.1768V662.218H39.448V660.947ZM39.448 651.623V650.351H38.1768V651.623H39.448ZM4.504 646.835H3.23276V648.106H4.504V646.835ZM4.504 637.175V635.903H3.23276V637.175H4.504ZM40.7192 660.947V651.623H38.1768V660.947H40.7192ZM39.448 652.894H54.82V650.351H39.448V652.894ZM54.82 652.894C55.9501 652.894 57.1071 652.775 58.0064 652.245C58.4866 651.962 58.8904 651.564 59.1629 651.036C59.4299 650.518 59.5352 649.945 59.5352 649.355H56.9928C56.9928 649.647 56.9406 649.798 56.9031 649.871C56.8711 649.933 56.8234 649.991 56.7156 650.055C56.4389 650.218 55.8739 650.351 54.82 650.351V652.894ZM59.5352 649.355V649.019H56.9928V649.355H59.5352ZM59.5352 649.019C59.5352 648.393 59.3994 647.8 59.0885 647.281C58.7767 646.759 58.3372 646.392 57.8578 646.14C56.951 645.663 55.8267 645.563 54.82 645.563V648.106C55.7453 648.106 56.343 648.216 56.6752 648.391C56.8153 648.464 56.8745 648.532 56.9066 648.586C56.9396 648.641 56.9928 648.763 56.9928 649.019H59.5352ZM54.82 645.563H4.504V648.106H54.82V645.563ZM5.77523 646.835L5.77523 637.175H3.23276L3.23276 646.835H5.77523ZM4.504 638.446H55.576V635.903H4.504V638.446ZM55.576 638.446C59.4434 638.446 62.0663 639.441 63.719 641.014C65.363 642.579 66.2328 644.893 66.2328 647.927H68.7752C68.7752 644.408 67.755 641.346 65.472 639.173C63.1977 637.008 59.8566 635.903 55.576 635.903V638.446ZM66.2328 647.927V650.531H68.7752V647.927H66.2328ZM66.2328 650.531C66.2328 653.43 65.5751 655.652 64.1299 657.158C62.6934 658.654 60.2532 659.675 56.164 659.675V662.218C60.6428 662.218 63.8726 661.097 65.9641 658.919C68.0469 656.749 68.7752 653.763 68.7752 650.531H66.2328ZM56.164 659.675H39.448V662.218H56.164V659.675ZM39.448 634.615H38.1768V635.886H39.448V634.615ZM39.448 625.291V624.019H38.1768V625.291H39.448ZM4.504 620.503H3.23276V621.774H4.504V620.503ZM4.504 610.843V609.571H3.23276V610.843H4.504ZM40.7192 634.615V625.291H38.1768V634.615H40.7192ZM39.448 626.562H54.82V624.019H39.448V626.562ZM54.82 626.562C55.9501 626.562 57.1071 626.443 58.0064 625.913C58.4866 625.63 58.8904 625.232 59.1629 624.704C59.4299 624.186 59.5352 623.613 59.5352 623.023H56.9928C56.9928 623.315 56.9406 623.466 56.9031 623.539C56.8711 623.601 56.8234 623.659 56.7156 623.723C56.4389 623.886 55.8739 624.019 54.82 624.019V626.562ZM59.5352 623.023V622.687H56.9928V623.023H59.5352ZM59.5352 622.687C59.5352 622.061 59.3994 621.468 59.0885 620.949C58.7767 620.427 58.3372 620.06 57.8578 619.808C56.951 619.331 55.8267 619.231 54.82 619.231V621.774C55.7453 621.774 56.343 621.884 56.6752 622.059C56.8153 622.132 56.8745 622.2 56.9066 622.254C56.9396 622.309 56.9928 622.431 56.9928 622.687H59.5352ZM54.82 619.231H4.504V621.774H54.82V619.231ZM5.77523 620.503L5.77523 610.843H3.23276L3.23276 620.503H5.77523ZM4.504 612.114H55.576V609.571H4.504L4.504 612.114ZM55.576 612.114C59.4434 612.114 62.0663 613.109 63.719 614.682C65.363 616.247 66.2328 618.561 66.2328 621.595H68.7752C68.7752 618.076 67.755 615.014 65.472 612.841C63.1977 610.676 59.8566 609.571 55.576 609.571V612.114ZM66.2328 621.595V624.199H68.7752V621.595H66.2328ZM66.2328 624.199C66.2328 627.098 65.5751 629.32 64.1299 630.826C62.6934 632.322 60.2532 633.343 56.164 633.343V635.886C60.6428 635.886 63.8726 634.765 65.9641 632.587C68.0469 630.417 68.7752 627.431 68.7752 624.199H66.2328ZM56.164 633.343H39.448V635.886H56.164V633.343ZM41.044 589.423H39.7728V590.695H41.044V589.423ZM67 589.423H68.2712V588.152H67V589.423ZM67 598.915V600.187H68.2712V598.915H67ZM4.504 598.915H3.23276V600.187H4.504V598.915ZM12.988 589.423H11.7168V590.695H12.988V589.423ZM32.056 589.423V590.695H33.3272V589.423H32.056ZM39.7728 583.879V589.423H42.3152V583.879H39.7728ZM41.044 590.695H67V588.152H41.044V590.695ZM65.7288 589.423V598.915H68.2712V589.423H65.7288ZM67 597.644H4.504V600.187H67V597.644ZM5.77523 598.915L5.77523 583.879H3.23276L3.23276 598.915H5.77523ZM5.77523 583.879C5.77523 580.664 6.46343 578.647 7.75073 577.401C9.04898 576.144 11.227 575.407 14.836 575.407V572.864C10.969 572.864 7.98102 573.639 5.98226 575.574C3.97257 577.52 3.23276 580.375 3.23276 583.879H5.77523ZM14.836 575.407H29.62L29.62 572.864H14.836V575.407ZM29.62 575.407C33.1538 575.407 35.6691 576.193 37.285 577.554C38.8626 578.883 39.7728 580.922 39.7728 583.879H42.3152C42.3152 580.369 41.2094 577.536 38.923 575.61C36.6749 573.716 33.4781 572.864 29.62 572.864L29.62 575.407ZM12.988 590.695H32.056V588.152H12.988V590.695ZM33.3272 589.423V586.987H30.7848V589.423H33.3272ZM33.3272 586.987C33.3272 586.128 33.1758 585.353 32.8305 584.686C32.4782 584.006 31.9622 583.512 31.3576 583.171C30.2215 582.53 28.7822 582.44 27.52 582.44V584.983C28.7777 584.983 29.6065 585.102 30.1084 585.386C30.3228 585.506 30.4683 585.653 30.5728 585.855C30.6842 586.07 30.7848 586.419 30.7848 586.987H33.3272ZM27.52 582.44H17.272V584.983H27.52V582.44ZM17.272 582.44C16.0311 582.44 14.6421 582.554 13.5494 583.228C12.3154 583.988 11.7168 585.28 11.7168 586.987H14.2592C14.2592 585.922 14.5846 585.576 14.8836 585.392C15.3239 585.121 16.0769 584.983 17.272 584.983V582.44ZM11.7168 586.987V589.423H14.2592V586.987H11.7168ZM45.916 560.206H47.1872V558.788L45.7781 558.942L45.916 560.206ZM22.816 562.726L22.6781 561.462L22.6827 563.99L22.816 562.726ZM45.916 565.162L45.7827 566.426L47.1872 566.574V565.162H45.916ZM67 557.938L67.1354 559.202L68.2712 559.08V557.938H67ZM55.24 559.198L55.1046 557.934L53.9688 558.055V559.198H55.24ZM55.24 566.086H53.9688V567.228L55.1046 567.35L55.24 566.086ZM67 567.346H68.2712V566.203L67.1354 566.082L67 567.346ZM67 575.83L66.8457 577.092L68.2712 577.266V575.83H67ZM4.504 568.186H3.23276V569.311L4.34966 569.448L4.504 568.186ZM4.504 556.93L4.33965 555.669L3.23276 555.814V556.93H4.504ZM67 548.782H68.2712V547.334L66.8357 547.521L67 548.782ZM45.7781 558.942L22.6781 561.462L22.9539 563.989L46.0539 561.469L45.7781 558.942ZM22.6827 563.99L45.7827 566.426L46.0493 563.898L22.9493 561.462L22.6827 563.99ZM47.1872 565.162V560.206H44.6448V565.162H47.1872ZM66.8646 556.674L55.1046 557.934L55.3754 560.462L67.1354 559.202L66.8646 556.674ZM53.9688 559.198V566.086H56.5112V559.198H53.9688ZM55.1046 567.35L66.8646 568.61L67.1354 566.082L55.3754 564.822L55.1046 567.35ZM65.7288 567.346V575.83H68.2712V567.346H65.7288ZM67.1543 574.568L4.65834 566.924L4.34966 569.448L66.8457 577.092L67.1543 574.568ZM5.77523 568.186L5.77523 556.93H3.23276L3.23276 568.186H5.77523ZM4.66835 558.19L67.1643 550.042L66.8357 547.521L4.33965 555.669L4.66835 558.19ZM65.7288 548.782V557.938H68.2712V548.782H65.7288ZM12.988 537.744H11.7168V539.015H12.988V537.744ZM30.208 537.744V539.015H31.4792V537.744H30.208ZM39.112 537.744H37.8408V539.015H39.112V537.744ZM67 537.744H68.2712V536.472H67V537.744ZM67 547.236V548.507H68.2712V547.236H67ZM4.504 547.236H3.23276V548.507H4.504V547.236ZM33.232 526.488L32.0727 527.009L33.2451 529.614L34.3956 527L33.232 526.488ZM66.58 521.448V520.176H66.3046L66.054 520.29L66.58 521.448ZM67 521.448H68.2712V520.176H67V521.448ZM67 530.856L67.6738 531.934L68.2712 531.56V530.856H67ZM12.988 539.015H30.208V536.472H12.988V539.015ZM31.4792 537.744V535.224H28.9368V537.744H31.4792ZM31.4792 535.224C31.4792 533.62 30.9402 532.315 29.7495 531.483C28.6573 530.72 27.2198 530.508 25.756 530.508V533.051C27.0642 533.051 27.8527 533.259 28.2935 533.567C28.6358 533.806 28.9368 534.223 28.9368 535.224H31.4792ZM25.756 530.508H17.02V533.051H25.756V530.508ZM17.02 530.508C15.6688 530.508 14.2712 530.635 13.2333 531.414C12.0917 532.27 11.7168 533.629 11.7168 535.224H14.2592C14.2592 533.962 14.5563 533.599 14.7587 533.448C15.0648 533.218 15.6832 533.051 17.02 533.051V530.508ZM11.7168 535.224V537.744H14.2592V535.224H11.7168ZM39.112 539.015H67V536.472H39.112V539.015ZM65.7288 537.744V547.236H68.2712V537.744H65.7288ZM67 545.964H4.504V548.507H67V545.964ZM5.77523 547.236L5.77523 531.864H3.23276L3.23276 547.236H5.77523ZM5.77523 531.864C5.77523 528.861 6.4203 526.885 7.63038 525.642C8.83428 524.405 10.8441 523.643 14.164 523.643V521.1C10.5119 521.1 7.69172 521.934 5.80862 523.868C3.9317 525.796 3.23276 528.566 3.23276 531.864H5.77523ZM14.164 523.643H25.252V521.1H14.164V523.643ZM25.252 523.643C27.652 523.643 29.2059 524.202 30.2146 524.863C31.2256 525.525 31.7749 526.347 32.0727 527.009L34.3913 525.966C33.9331 524.948 33.0964 523.712 31.6084 522.736C30.1181 521.76 28.06 521.1 25.252 521.1V523.643ZM34.3956 527C34.805 526.069 35.3373 525.26 36.1502 524.672C36.9528 524.092 38.1477 523.643 40.036 523.643V521.1C37.7242 521.1 35.9791 521.659 34.6608 522.612C33.3527 523.557 32.583 524.806 32.0684 525.976L34.3956 527ZM40.036 523.643H61.96V521.1H40.036V523.643ZM61.96 523.643C64.7073 523.643 66.0643 523.078 67.106 522.605L66.054 520.29C65.2477 520.657 64.2527 521.1 61.96 521.1V523.643ZM66.58 522.719H67V520.176H66.58V522.719ZM65.7288 521.448V530.856H68.2712V521.448H65.7288ZM66.3262 529.778C65.9288 530.026 65.1008 530.508 61.876 530.508V533.051C65.3712 533.051 66.7272 532.525 67.6738 531.934L66.3262 529.778ZM61.876 530.508H43.06V533.051H61.876V530.508ZM43.06 530.508C41.7064 530.508 40.2872 530.603 39.2604 531.411C38.1391 532.293 37.8408 533.702 37.8408 535.308H40.3832C40.3832 533.89 40.6729 533.534 40.8326 533.409C41.0868 533.209 41.6416 533.051 43.06 533.051V530.508ZM37.8408 535.308V537.744H40.3832V535.308H37.8408ZM67 509.607H68.2712V508.336H67V509.607ZM67 519.099V520.37H68.2712V519.099H67ZM4.504 519.099H3.23276V520.37H4.504V519.099ZM4.504 509.607L4.504 508.336H3.23276V509.607H4.504ZM29.536 509.607V510.878L29.8998 508.389L29.536 509.607ZM4.504 502.131H3.23276V503.078L4.14021 503.349L4.504 502.131ZM4.504 492.891L4.87315 491.674L3.23276 491.177V492.891H4.504ZM33.568 501.711L33.1988 502.927L33.5607 503.037L33.9237 502.931L33.568 501.711ZM67 491.967H68.2712V490.272L66.6443 490.746L67 491.967ZM67 501.711L67.3552 502.932L68.2712 502.665V501.711H67ZM39.868 509.607L39.5128 508.386L39.868 510.878V509.607ZM65.7288 509.607V519.099H68.2712V509.607H65.7288ZM67 517.828H4.504V520.37H67V517.828ZM5.77523 519.099V509.607H3.23276L3.23276 519.099H5.77523ZM4.504 510.878H29.536V508.336H4.504L4.504 510.878ZM29.8998 508.389L4.86778 500.913L4.14021 503.349L29.1722 510.825L29.8998 508.389ZM5.77523 502.131L5.77523 492.891H3.23276L3.23276 502.131H5.77523ZM4.13484 494.107L33.1988 502.927L33.9372 500.494L4.87315 491.674L4.13484 494.107ZM33.9237 502.931L67.3557 493.187L66.6443 490.746L33.2123 500.49L33.9237 502.931ZM65.7288 491.967V501.711H68.2712V491.967H65.7288ZM66.6448 500.49L39.5128 508.386L40.2232 510.828L67.3552 502.932L66.6448 500.49ZM39.868 510.878H67V508.336H39.868V510.878ZM43.312 491.882H42.0408V493.153H43.312V491.882ZM43.312 482.474V481.203H42.0408V482.474H43.312ZM41.296 480.122L40.5182 479.117L40.5125 479.121L41.296 480.122ZM33.568 486.17L34.3462 487.175L34.3515 487.171L33.568 486.17ZM25 467.102H26.2712V465.831H25V467.102ZM25 476.258V477.529H26.2712V476.258H25ZM27.436 477.854L26.6578 476.849L26.657 476.85L27.436 477.854ZM35.248 471.806L34.4707 470.8L34.4698 470.801L35.248 471.806ZM66.4008 480.29C66.4008 483.846 65.4363 486.371 63.7587 488.013C62.0767 489.659 59.4825 490.611 55.828 490.611V493.153C59.9015 493.153 63.2293 492.089 65.5373 489.83C67.8497 487.566 68.9432 484.294 68.9432 480.29H66.4008ZM55.828 490.611H43.312V493.153H55.828V490.611ZM44.5832 491.882L44.5832 482.474H42.0408L42.0408 491.882H44.5832ZM43.312 483.745H54.232V481.203H43.312V483.745ZM54.232 483.745C55.7523 483.745 57.1554 483.508 58.2059 482.788C59.3514 482.002 59.8712 480.792 59.8712 479.366H57.3288C57.3288 480.124 57.0926 480.468 56.7681 480.691C56.3486 480.978 55.5677 481.203 54.232 481.203V483.745ZM59.8712 479.366C59.8712 478.663 59.7545 477.973 59.4366 477.348C59.1112 476.708 58.6161 476.216 57.9932 475.859C56.8211 475.187 55.1815 474.987 53.224 474.987V477.529C55.1305 477.529 56.1789 477.749 56.7288 478.065C56.9669 478.201 57.0913 478.345 57.1701 478.5C57.2565 478.67 57.3288 478.936 57.3288 479.366H59.8712ZM53.224 474.987H51.796V477.529H53.224V474.987ZM51.796 474.987C49.5474 474.987 47.8505 475.088 46.1216 475.7C44.4083 476.307 42.763 477.38 40.5182 479.117L42.0738 481.128C44.281 479.42 45.6597 478.561 46.9704 478.097C48.2655 477.638 49.5926 477.529 51.796 477.529V474.987ZM40.5125 479.121L32.7845 485.169L34.3515 487.171L42.0795 481.123L40.5125 479.121ZM32.7898 485.165C30.2667 487.118 28.0844 488.337 25.8223 489.078C23.5571 489.82 21.14 490.107 18.112 490.107V492.649C21.3 492.649 24.0069 492.348 26.6137 491.494C29.2236 490.639 31.6613 489.254 34.3462 487.175L32.7898 485.165ZM18.112 490.107H16.096V492.649H18.112V490.107ZM16.096 490.107C12.1373 490.107 9.46761 489.108 7.78165 487.44C6.0979 485.774 5.18723 483.234 5.18723 479.702H2.64476C2.64476 483.647 3.66609 486.944 5.99334 489.247C8.31838 491.548 11.7387 492.649 16.096 492.649V490.107ZM5.18723 479.702V477.938H2.64476V479.702H5.18723ZM5.18723 477.938C5.18723 474.186 6.01819 471.89 7.44738 470.503C8.88436 469.108 11.1907 468.373 14.752 468.373V465.831C10.9213 465.831 7.80964 466.608 5.67661 468.679C3.5358 470.756 2.64476 473.878 2.64476 477.938H5.18723ZM14.752 468.373H25V465.831H14.752V468.373ZM23.7288 467.102V476.258H26.2712V467.102H23.7288ZM25 474.987H16.012V477.529H25V474.987ZM16.012 474.987C14.9407 474.987 13.7118 475.081 12.7327 475.656C12.2106 475.962 11.7669 476.4 11.4653 476.993C11.17 477.573 11.0448 478.233 11.0448 478.946H13.5872C13.5872 478.525 13.6615 478.283 13.731 478.146C13.7943 478.022 13.8809 477.93 14.0203 477.848C14.3642 477.646 14.9833 477.529 16.012 477.529V474.987ZM11.0448 478.946C11.0448 479.639 11.1527 480.303 11.444 480.897C11.7452 481.51 12.2043 481.969 12.772 482.289C13.8173 482.88 15.2208 482.989 16.684 482.989V480.447C15.2072 480.447 14.4267 480.304 14.023 480.076C13.8662 479.987 13.7845 479.895 13.7261 479.776C13.6578 479.637 13.5872 479.388 13.5872 478.946H11.0448ZM16.684 482.989H17.86V480.447H16.684V482.989ZM17.86 482.989C19.7142 482.989 21.2535 482.812 22.8937 482.166C24.5028 481.532 26.129 480.477 28.215 478.859L26.657 476.85C24.627 478.424 23.2292 479.301 21.9613 479.801C20.7245 480.288 19.5338 480.447 17.86 480.447V482.989ZM28.2142 478.859L36.0262 472.811L34.4698 470.801L26.6578 476.849L28.2142 478.859ZM36.0253 472.812C38.7639 470.696 40.8257 469.383 43.0152 468.579C45.1945 467.779 47.5915 467.449 51.04 467.449V464.907C47.4325 464.907 44.7055 465.25 42.1388 466.192C39.5823 467.131 37.2761 468.633 34.4707 470.8L36.0253 472.812ZM51.04 467.449H53.056V464.907H51.04V467.449ZM53.056 467.449C57.4785 467.449 60.802 468.407 62.9988 470.181C65.1488 471.917 66.4008 474.583 66.4008 478.442H68.9432C68.9432 473.986 67.4652 470.52 64.5962 468.203C61.774 465.924 57.7895 464.907 53.056 464.907V467.449ZM66.4008 478.442V480.29H68.9432V478.442H66.4008Z" fill="black" mask="url(#path-10-outside-4_901_903)"/>
<path d="M72 392.459C72 388.959 68.7182 386.259 64.0442 386.259C61.7569 386.259 58.0773 387.159 52.9061 388.859C47.7348 390.559 42.9613 391.459 38.6851 391.459H37.3923C40.1768 387.059 42.4641 384.059 44.0552 382.659C47.337 379.759 56.6851 372.159 56.6851 366.259C56.6851 362.759 54.1989 360.359 51.2155 360.359C49.5249 360.359 48.0331 361.059 46.5414 362.459C43.6575 365.259 42.2652 371.459 40.674 378.759C39.8784 382.459 38.3867 386.359 36 390.659C33.6133 386.259 32.0221 382.259 31.2265 378.459C30.4309 374.759 29.6354 371.459 28.7403 368.659C26.8508 362.859 23.9669 360.359 20.5856 360.359C17.5028 360.359 15.3149 362.759 15.3149 365.959C15.3149 367.959 15.9116 369.859 17.2044 371.759C18.3978 373.559 21.5801 376.859 26.7514 381.559C31.4254 386.459 31.0276 385.759 34.6077 391.459C29.8343 391.459 24.7624 390.559 19.4917 388.759C14.221 386.959 10.3425 386.059 7.9558 386.059C3.18232 386.059 0 388.759 0 392.259C0 395.859 3.38121 398.459 7.9558 398.459C11.4365 398.459 18.895 395.959 23.6685 394.359C26.0552 393.559 29.337 393.259 33.3149 393.259H34.6077C32.221 397.259 29.7348 400.359 27.2486 402.559C22.2762 406.959 15.3149 413.159 15.3149 418.459C15.3149 421.959 17.6022 424.359 20.5856 424.359C22.2762 424.359 23.8674 423.659 25.3591 422.359C28.3425 419.759 29.6354 413.759 31.2265 406.259C32.0221 402.459 33.6133 398.359 36 394.059C38.3867 398.259 39.9779 402.259 40.674 405.859C41.3702 409.559 42.2652 412.859 43.0608 415.759C44.6519 421.659 47.9337 424.359 51.2155 424.359C54.1989 424.359 56.6851 421.759 56.6851 418.559C56.6851 413.359 51.2155 408.459 45.6464 403.459C42.8619 400.959 40.0773 397.659 37.3923 393.259C42.5635 393.259 47.5359 394.159 52.7072 395.959C57.779 397.759 61.558 398.659 64.0442 398.659C68.5193 398.659 72 396.159 72 392.459Z" fill="black"/>
<mask id="path-13-outside-5_901_903" maskUnits="userSpaceOnUse" x="3" y="102.68" width="66" height="217" fill="black">
<rect fill="white" x="3" y="102.68" width="66" height="217"/>
<path d="M4.504 317.916L4.504 296.328H13.576L13.576 308.424H29.956V298.932H39.448V308.424H57.508V295.824H67V317.916H4.504ZM67 275.668V287.176L4.504 295.072V285.412L47.428 281.128L4.504 276.76L4.504 267.772L67 275.668ZM4.504 266.072L4.504 244.484H13.576L13.576 256.58H29.956V247.088H39.448V256.58H57.508V243.98H67V266.072H4.504ZM12.988 232.053H30.208V229.533C30.208 226.929 28.528 226.089 25.756 226.089H17.02C14.332 226.089 12.988 226.677 12.988 229.533V232.053ZM39.112 232.053H67V241.545H4.504L4.504 226.173C4.504 219.873 7.192 216.681 14.164 216.681H25.252C30.46 216.681 32.476 219.117 33.232 220.797C34.156 218.697 35.836 216.681 40.036 216.681H61.96C64.48 216.681 65.656 216.177 66.58 215.757H67V225.165C66.328 225.585 65.236 226.089 61.876 226.089H43.06C40.288 226.089 39.112 226.593 39.112 229.617V232.053ZM67 207.6H40.96L4.504 216.168L4.504 206.928L27.772 202.56L4.504 198.36L4.504 189.792L41.044 198.108H67V207.6ZM67 180.021H4.504L4.504 165.489C4.504 157.341 9.124 154.821 16.516 154.821H54.568C62.212 154.821 67 157.677 67 165.489V180.021ZM12.988 170.529H57.928V168.261C57.928 165.405 56.416 164.565 53.056 164.565H17.86C14.248 164.565 12.988 165.489 12.988 167.841V170.529ZM45.916 138.276L22.816 140.796L45.916 143.232V138.276ZM67 136.008L55.24 137.268V144.156L67 145.416L67 153.9L4.504 146.256L4.504 135L67 126.852V136.008ZM67 122.37H40.96L4.504 130.938L4.504 121.698L27.772 117.33L4.504 113.13L4.504 104.562L41.044 112.878H67V122.37Z"/>
</mask>
<path d="M4.504 317.916H3.23276V319.187H4.504V317.916ZM4.504 296.328V295.056H3.23276L3.23276 296.328H4.504ZM13.576 296.328H14.8472V295.056H13.576V296.328ZM13.576 308.424H12.3048V309.695H13.576V308.424ZM29.956 308.424V309.695H31.2272V308.424H29.956ZM29.956 298.932V297.66H28.6848V298.932H29.956ZM39.448 298.932H40.7192V297.66H39.448V298.932ZM39.448 308.424H38.1768V309.695H39.448V308.424ZM57.508 308.424V309.695H58.7792V308.424H57.508ZM57.508 295.824V294.552H56.2368V295.824H57.508ZM67 295.824H68.2712V294.552H67V295.824ZM67 317.916V319.187H68.2712V317.916H67ZM5.77523 317.916L5.77523 296.328H3.23276L3.23276 317.916H5.77523ZM4.504 297.599H13.576V295.056H4.504V297.599ZM12.3048 296.328L12.3048 308.424H14.8472L14.8472 296.328H12.3048ZM13.576 309.695H29.956V307.152H13.576V309.695ZM31.2272 308.424V298.932H28.6848V308.424H31.2272ZM29.956 300.203H39.448V297.66H29.956V300.203ZM38.1768 298.932V308.424H40.7192V298.932H38.1768ZM39.448 309.695H57.508V307.152H39.448V309.695ZM58.7792 308.424V295.824H56.2368V308.424H58.7792ZM57.508 297.095H67V294.552H57.508V297.095ZM65.7288 295.824V317.916H68.2712V295.824H65.7288ZM67 316.644H4.504V319.187H67V316.644ZM67 275.668H68.2712V274.548L67.1593 274.407L67 275.668ZM67 287.176L67.1593 288.437L68.2712 288.297V287.176H67ZM4.504 295.072H3.23276L3.23276 296.514L4.66334 296.333L4.504 295.072ZM4.504 285.412L4.37775 284.147L3.23276 284.262L3.23276 285.412H4.504ZM47.428 281.128L47.5542 282.393L47.5567 279.864L47.428 281.128ZM4.504 276.76H3.23276V277.909L4.3753 278.025L4.504 276.76ZM4.504 267.772L4.66334 266.511L3.23276 266.33L3.23276 267.772H4.504ZM65.7288 275.668V287.176H68.2712V275.668H65.7288ZM66.8407 285.915L4.34465 293.811L4.66334 296.333L67.1593 288.437L66.8407 285.915ZM5.77523 295.072V285.412H3.23276V295.072H5.77523ZM4.63025 286.677L47.5542 282.393L47.3018 279.863L4.37775 284.147L4.63025 286.677ZM47.5567 279.864L4.6327 275.496L4.3753 278.025L47.2993 282.393L47.5567 279.864ZM5.77523 276.76L5.77523 267.772H3.23276L3.23276 276.76H5.77523ZM4.34465 269.033L66.8407 276.929L67.1593 274.407L4.66334 266.511L4.34465 269.033ZM4.504 266.072H3.23276L3.23276 267.343H4.504V266.072ZM4.504 244.484V243.213H3.23276V244.484H4.504ZM13.576 244.484H14.8472V243.213H13.576V244.484ZM13.576 256.58H12.3048V257.851H13.576V256.58ZM29.956 256.58V257.851H31.2272V256.58H29.956ZM29.956 247.088V245.817H28.6848V247.088H29.956ZM39.448 247.088H40.7192V245.817H39.448V247.088ZM39.448 256.58H38.1768V257.851H39.448V256.58ZM57.508 256.58V257.851H58.7792V256.58H57.508ZM57.508 243.98V242.709H56.2368V243.98H57.508ZM67 243.98H68.2712V242.709H67V243.98ZM67 266.072V267.343H68.2712V266.072H67ZM5.77523 266.072L5.77523 244.484H3.23276L3.23276 266.072H5.77523ZM4.504 245.755H13.576V243.213H4.504V245.755ZM12.3048 244.484V256.58H14.8472L14.8472 244.484H12.3048ZM13.576 257.851H29.956V255.309H13.576V257.851ZM31.2272 256.58V247.088H28.6848V256.58H31.2272ZM29.956 248.359H39.448V245.817H29.956V248.359ZM38.1768 247.088V256.58H40.7192V247.088H38.1768ZM39.448 257.851H57.508V255.309H39.448V257.851ZM58.7792 256.58V243.98H56.2368V256.58H58.7792ZM57.508 245.251H67V242.709H57.508V245.251ZM65.7288 243.98V266.072H68.2712V243.98H65.7288ZM67 264.801H4.504V267.343H67V264.801ZM12.988 232.053H11.7168V233.324H12.988V232.053ZM30.208 232.053L30.208 233.324H31.4792L31.4792 232.053H30.208ZM39.112 232.053H37.8408V233.324H39.112V232.053ZM67 232.053H68.2712V230.781H67V232.053ZM67 241.545V242.816H68.2712V241.545H67ZM4.504 241.545H3.23276L3.23276 242.816H4.504V241.545ZM33.232 220.797L32.0727 221.318L33.2451 223.923L34.3956 221.309L33.232 220.797ZM66.58 215.757V214.485H66.3046L66.054 214.599L66.58 215.757ZM67 215.757H68.2712V214.485H67V215.757ZM67 225.165L67.6738 226.243L68.2712 225.869V225.165H67ZM12.988 233.324H30.208L30.208 230.781H12.988V233.324ZM31.4792 232.053V229.533H28.9368V232.053H31.4792ZM31.4792 229.533C31.4792 227.929 30.9402 226.624 29.7495 225.792C28.6573 225.029 27.2198 224.817 25.756 224.817V227.36C27.0642 227.36 27.8527 227.568 28.2935 227.876C28.6358 228.115 28.9368 228.532 28.9368 229.533H31.4792ZM25.756 224.817H17.02V227.36H25.756V224.817ZM17.02 224.817C15.6688 224.817 14.2712 224.944 13.2333 225.723C12.0917 226.579 11.7168 227.938 11.7168 229.533H14.2592C14.2592 228.271 14.5563 227.908 14.7587 227.757C15.0648 227.527 15.6832 227.36 17.02 227.36V224.817ZM11.7168 229.533V232.053H14.2592V229.533H11.7168ZM39.112 233.324H67V230.781H39.112V233.324ZM65.7288 232.053V241.545H68.2712V232.053H65.7288ZM67 240.273H4.504L4.504 242.816H67V240.273ZM5.77523 241.545L5.77523 226.173H3.23276L3.23276 241.545H5.77523ZM5.77523 226.173C5.77523 223.17 6.4203 221.194 7.63038 219.951C8.83428 218.714 10.8441 217.952 14.164 217.952V215.409C10.5119 215.409 7.69172 216.243 5.80862 218.177C3.9317 220.105 3.23276 222.875 3.23276 226.173H5.77523ZM14.164 217.952H25.252V215.409H14.164V217.952ZM25.252 217.952C27.652 217.952 29.2059 218.511 30.2146 219.172C31.2256 219.834 31.7749 220.656 32.0727 221.318L34.3913 220.275C33.9331 219.257 33.0964 218.021 31.6084 217.045C30.1181 216.069 28.06 215.409 25.252 215.409V217.952ZM34.3956 221.309C34.805 220.378 35.3373 219.569 36.1502 218.981C36.9528 218.401 38.1477 217.952 40.036 217.952V215.409C37.7242 215.409 35.9791 215.968 34.6608 216.921C33.3527 217.866 32.583 219.115 32.0684 220.285L34.3956 221.309ZM40.036 217.952H61.96V215.409H40.036V217.952ZM61.96 217.952C64.7073 217.952 66.0643 217.387 67.106 216.914L66.054 214.599C65.2477 214.966 64.2527 215.409 61.96 215.409V217.952ZM66.58 217.028H67V214.485H66.58V217.028ZM65.7288 215.757V225.165H68.2712V215.757H65.7288ZM66.3262 224.087C65.9288 224.335 65.1008 224.817 61.876 224.817V227.36C65.3712 227.36 66.7272 226.834 67.6738 226.243L66.3262 224.087ZM61.876 224.817H43.06V227.36H61.876V224.817ZM43.06 224.817C41.7064 224.817 40.2872 224.912 39.2604 225.72C38.1391 226.602 37.8408 228.01 37.8408 229.617H40.3832C40.3832 228.199 40.6729 227.843 40.8326 227.718C41.0868 227.518 41.6416 227.36 43.06 227.36V224.817ZM37.8408 229.617V232.053H40.3832V229.617H37.8408ZM67 207.6V208.871H68.2712V207.6H67ZM40.96 207.6V206.329H40.8126L40.6692 206.363L40.96 207.6ZM4.504 216.168H3.23276V217.773L4.79484 217.406L4.504 216.168ZM4.504 206.928L4.26945 205.679L3.23276 205.873V206.928H4.504ZM27.772 202.56L28.0065 203.809L27.9978 201.309L27.772 202.56ZM4.504 198.36H3.23276V199.422L4.27818 199.611L4.504 198.36ZM4.504 189.792L4.7861 188.553L3.23276 188.199V189.792H4.504ZM41.044 198.108L40.7619 199.348L40.9012 199.379H41.044V198.108ZM67 198.108H68.2712V196.837H67V198.108ZM67 206.329H40.96V208.871H67V206.329ZM40.6692 206.363L4.21315 214.931L4.79484 217.406L41.2508 208.838L40.6692 206.363ZM5.77523 216.168L5.77523 206.928H3.23276L3.23276 216.168H5.77523ZM4.73854 208.177L28.0065 203.809L27.5375 201.311L4.26945 205.679L4.73854 208.177ZM27.9978 201.309L4.72981 197.109L4.27818 199.611L27.5462 203.811L27.9978 201.309ZM5.77523 198.36L5.77523 189.792H3.23276L3.23276 198.36H5.77523ZM4.2219 191.032L40.7619 199.348L41.3261 196.869L4.7861 188.553L4.2219 191.032ZM41.044 199.379H67V196.837H41.044V199.379ZM65.7288 198.108V207.6H68.2712V198.108H65.7288ZM67 180.021V181.292H68.2712V180.021H67ZM4.504 180.021H3.23276L3.23276 181.292H4.504V180.021ZM12.988 170.529H11.7168V171.8H12.988V170.529ZM57.928 170.529V171.8H59.1992V170.529H57.928ZM67 178.75H4.504V181.292H67V178.75ZM5.77523 180.021L5.77523 165.489H3.23276L3.23276 180.021H5.77523ZM5.77523 165.489C5.77523 161.657 6.85153 159.425 8.52783 158.096C10.2688 156.715 12.9174 156.092 16.516 156.092V153.55C12.7226 153.55 9.36521 154.187 6.94817 156.104C4.46647 158.071 3.23276 161.173 3.23276 165.489H5.77523ZM16.516 156.092H54.568V153.55H16.516V156.092ZM54.568 156.092C58.2705 156.092 61.039 156.791 62.8653 158.225C64.6297 159.611 65.7288 161.857 65.7288 165.489H68.2712C68.2712 161.309 66.9763 158.221 64.4357 156.226C61.957 154.279 58.5095 153.55 54.568 153.55V156.092ZM65.7288 165.489V180.021H68.2712V165.489H65.7288ZM12.988 171.8H57.928V169.258H12.988V171.8ZM59.1992 170.529V168.261H56.6568V170.529H59.1992ZM59.1992 168.261C59.1992 166.613 58.7523 165.204 57.4883 164.306C56.3428 163.492 54.7693 163.294 53.056 163.294V165.836C54.7027 165.836 55.5652 166.058 56.0157 166.378C56.3477 166.614 56.6568 167.053 56.6568 168.261H59.1992ZM53.056 163.294H17.86V165.836H53.056V163.294ZM17.86 163.294C16.0168 163.294 14.4572 163.515 13.3511 164.272C12.11 165.122 11.7168 166.43 11.7168 167.841H14.2592C14.2592 166.9 14.496 166.57 14.7879 166.37C15.2148 166.078 16.0912 165.836 17.86 165.836V163.294ZM11.7168 167.841V170.529H14.2592V167.841H11.7168ZM45.916 138.276H47.1872V136.859L45.7781 137.013L45.916 138.276ZM22.816 140.796L22.6781 139.533L22.6827 142.061L22.816 140.796ZM45.916 143.232L45.7827 144.497L47.1872 144.645V143.232H45.916ZM67 136.008L67.1354 137.272L68.2712 137.151V136.008H67ZM55.24 137.268L55.1046 136.004L53.9688 136.126V137.268H55.24ZM55.24 144.156H53.9688V145.299L55.1046 145.42L55.24 144.156ZM67 145.416H68.2712V144.274L67.1354 144.152L67 145.416ZM67 153.9L66.8457 155.162L68.2712 155.337V153.9H67ZM4.504 146.256H3.23276V147.382L4.34966 147.518L4.504 146.256ZM4.504 135L4.33965 133.74L3.23276 133.884V135H4.504ZM67 126.852H68.2712V125.405L66.8357 125.592L67 126.852ZM45.7781 137.013L22.6781 139.533L22.9539 142.06L46.0539 139.54L45.7781 137.013ZM22.6827 142.061L45.7827 144.497L46.0493 141.968L22.9493 139.532L22.6827 142.061ZM47.1872 143.232V138.276H44.6448V143.232H47.1872ZM66.8646 134.744L55.1046 136.004L55.3754 138.532L67.1354 137.272L66.8646 134.744ZM53.9688 137.268V144.156H56.5112V137.268H53.9688ZM55.1046 145.42L66.8646 146.68L67.1354 144.152L55.3754 142.892L55.1046 145.42ZM65.7288 145.416L65.7288 153.9H68.2712L68.2712 145.416H65.7288ZM67.1543 152.639L4.65834 144.995L4.34966 147.518L66.8457 155.162L67.1543 152.639ZM5.77523 146.256L5.77523 135H3.23276L3.23276 146.256H5.77523ZM4.66835 136.261L67.1643 128.113L66.8357 125.592L4.33965 133.74L4.66835 136.261ZM65.7288 126.852V136.008H68.2712V126.852H65.7288ZM67 122.37V123.641H68.2712V122.37H67ZM40.96 122.37V121.098H40.8126L40.6692 121.132L40.96 122.37ZM4.504 130.938H3.23276V132.542L4.79484 132.175L4.504 130.938ZM4.504 121.698L4.26945 120.448L3.23276 120.643V121.698H4.504ZM27.772 117.33L28.0065 118.579L27.9978 116.079L27.772 117.33ZM4.504 113.13H3.23276V114.192L4.27818 114.381L4.504 113.13ZM4.504 104.562L4.7861 103.322L3.23276 102.969V104.562H4.504ZM41.044 112.878L40.7619 114.117L40.9012 114.149H41.044V112.878ZM67 112.878H68.2712V111.606H67V112.878ZM67 121.098H40.96V123.641H67V121.098ZM40.6692 121.132L4.21315 129.7L4.79484 132.175L41.2508 123.607L40.6692 121.132ZM5.77523 130.938L5.77523 121.698H3.23276L3.23276 130.938H5.77523ZM4.73854 122.947L28.0065 118.579L27.5375 116.08L4.26945 120.448L4.73854 122.947ZM27.9978 116.079L4.72981 111.879L4.27818 114.381L27.5462 118.581L27.9978 116.079ZM5.77523 113.13L5.77523 104.562H3.23276L3.23276 113.13H5.77523ZM4.2219 105.801L40.7619 114.117L41.3261 111.638L4.7861 103.322L4.2219 105.801ZM41.044 114.149H67V111.606H41.044V114.149ZM65.7288 112.878V122.37H68.2712V112.878H65.7288Z" fill="black" mask="url(#path-13-outside-5_901_903)"/>
<path d="M72 32.1002C72 28.6002 68.7182 25.9002 64.0442 25.9002C61.7569 25.9002 58.0773 26.8002 52.9061 28.5002C47.7348 30.2002 42.9613 31.1002 38.6851 31.1002H37.3923C40.1768 26.7002 42.4641 23.7002 44.0552 22.3002C47.337 19.4002 56.6851 11.8002 56.6851 5.90024C56.6851 2.40024 54.1989 0.000244141 51.2155 0.000244141C49.5249 0.000244141 48.0331 0.700245 46.5414 2.10025C43.6575 4.90025 42.2652 11.1002 40.674 18.4002C39.8784 22.1002 38.3867 26.0002 36 30.3002C33.6133 25.9002 32.0221 21.9002 31.2265 18.1002C30.4309 14.4002 29.6354 11.1002 28.7403 8.30024C26.8508 2.50025 23.9669 0.000244141 20.5856 0.000244141C17.5028 0.000244141 15.3149 2.40024 15.3149 5.60024C15.3149 7.60024 15.9116 9.50024 17.2044 11.4002C18.3978 13.2002 21.5801 16.5002 26.7514 21.2002C31.4254 26.1002 31.0276 25.4002 34.6077 31.1002C29.8343 31.1002 24.7624 30.2002 19.4917 28.4002C14.221 26.6002 10.3425 25.7002 7.9558 25.7002C3.18232 25.7002 0 28.4002 0 31.9002C0 35.5002 3.38121 38.1002 7.9558 38.1002C11.4365 38.1002 18.895 35.6002 23.6685 34.0002C26.0552 33.2002 29.337 32.9002 33.3149 32.9002H34.6077C32.221 36.9002 29.7348 40.0002 27.2486 42.2002C22.2762 46.6002 15.3149 52.8002 15.3149 58.1002C15.3149 61.6002 17.6022 64.0002 20.5856 64.0002C22.2762 64.0002 23.8674 63.3002 25.3591 62.0002C28.3425 59.4002 29.6354 53.4002 31.2265 45.9002C32.0221 42.1002 33.6133 38.0002 36 33.7002C38.3867 37.9002 39.9779 41.9002 40.674 45.5002C41.3702 49.2002 42.2652 52.5002 43.0608 55.4002C44.6519 61.3002 47.9337 64.0002 51.2155 64.0002C54.1989 64.0002 56.6851 61.4002 56.6851 58.2002C56.6851 53.0002 51.2155 48.1002 45.6464 43.1002C42.8619 40.6002 40.0773 37.3002 37.3923 32.9002C42.5635 32.9002 47.5359 33.8002 52.7072 35.6002C57.779 37.4002 61.558 38.3002 64.0442 38.3002C68.5193 38.3002 72 35.8002 72 32.1002Z" fill="black"/>
</svg>
