<svg width="128.000000" height="128.000000" viewBox="0 0 128 128" fill="none" xmlns="http://www.w3.org/2000/svg" xmlns:xlink="http://www.w3.org/1999/xlink">
	<desc>
			Created with Pixso.
	</desc>
	<defs/>
	<path id="Vector" d="M64.1632 125L64.1568 125Q63.7491 124.999 63.4599 124.813Q63.0319 124.538 62.8634 123.859L62.8628 123.857Q60.421 114.059 53.547 103.079Q45.4306 89.9495 30.4627 78.7656Q17.398 68.8925 4.23813 65.277Q3.52093 65.0787 3.21917 64.6118Q3 64.2727 3 63.792Q3 63.3063 3.22384 62.9694Q3.51096 62.5371 4.16637 62.3495Q17.0124 58.6793 28.8707 50.4689Q38.4657 43.7902 45.8496 35.2089Q48.937 31.6207 51.6379 27.7Q59.7576 15.8197 62.7975 4.14148Q62.9722 3.4754 63.3994 3.198Q63.7042 3 64.1377 3Q64.5761 3 64.8843 3.20038Q65.3232 3.48578 65.4979 4.17761Q67.2577 11.197 70.9875 18.5263Q75.6681 27.5383 82.9051 35.8078Q83.0536 35.9703 83.2028 36.1321Q90.4921 44.0389 99.4148 50.44Q111.399 58.9347 123.83 62.3879Q124.505 62.5758 124.79 63.016Q125 63.3392 125 63.7984Q125 64.262 124.79 64.5916Q124.492 65.0594 123.77 65.2574Q115.847 67.4292 107.501 72.2324Q105.765 73.2493 104.073 74.3328Q96.023 79.485 88.9385 86.145Q80.3248 94.0739 74.7871 102.904Q67.8994 113.895 65.4547 123.854Q65.2881 124.536 64.8597 124.812Q64.5709 124.999 64.1632 125ZM64.1632 128C66.1829 127.997 67.8887 126.532 68.3683 124.569C69.9236 118.233 72.9125 111.545 77.3287 104.498C80.8809 98.8337 85.4379 93.4447 90.9934 88.3308C96.5489 83.1082 102.552 78.6087 108.997 74.8325C114.335 71.7604 119.52 69.5331 124.563 68.1506C126.547 67.6066 128 65.8209 128 63.7984C128 61.7759 126.586 60.0414 124.633 59.4974C116.684 57.2892 108.857 53.4555 101.164 48.0024C95.2752 43.7782 89.9373 39.0547 85.1627 33.8321C80.4969 28.5006 76.663 22.9451 73.6613 17.1656C71.2803 12.4871 69.5267 7.91083 68.4066 3.44336C67.9074 1.4657 66.1538 0 64.1377 0C62.1216 0 60.4063 1.43365 59.8943 3.38574C57.955 10.8358 54.3772 18.3753 49.1673 25.9981C43.2726 34.5553 35.9442 41.8901 27.163 48.0024C19.5274 53.2891 11.5846 57.11 3.34095 59.4653C1.39525 60.0222 0 61.7247 0 63.792C0 65.8593 1.45287 67.6194 3.44337 68.1698C11.8534 70.4803 20.257 74.8134 28.6671 81.1689C38.3379 88.3948 45.7815 96.2224 51.0042 104.671C55.4076 111.705 58.3965 118.342 59.9518 124.582C60.4377 126.539 62.1435 127.997 64.1568 128L64.1632 128Z" fill="#F55E1D" fill-opacity="1.000000" fill-rule="evenodd"/>
</svg>
